<svg width="461" height="203" viewBox="0 0 461 203" fill="none" xmlns="http://www.w3.org/2000/svg">
<line x1="57.5123" y1="94.7222" x2="57.5123" y2="129.659" stroke="#B9DFE4" stroke-width="0.88393" stroke-dasharray="3.54 3.54"/>
<line x1="57.5123" y1="94.7222" x2="57.5123" y2="129.659" stroke="black" stroke-opacity="0.2" stroke-width="0.88393" stroke-dasharray="3.54 3.54"/>
<line x1="288.114" y1="94.7222" x2="288.114" y2="129.659" stroke="#B9DFE4" stroke-width="0.88393" stroke-dasharray="3.54 3.54"/>
<line x1="288.114" y1="94.7222" x2="288.114" y2="129.659" stroke="#0BD0CA" stroke-width="0.88393" stroke-dasharray="3.54 3.54"/>
<path d="M29.9172 86.2168V75.6322H34.4045C34.8915 75.6322 35.3387 75.7316 35.7462 75.9304C36.1537 76.1292 36.5065 76.3975 36.8046 76.7354C37.1127 77.0733 37.3513 77.451 37.5202 77.8684C37.6892 78.2858 37.7737 78.7132 37.7737 79.1505C37.7737 79.7468 37.6345 80.3133 37.3562 80.85C37.078 81.3867 36.6953 81.824 36.2083 82.1619C35.7213 82.4998 35.1449 82.6687 34.479 82.6687H31.9745V86.2168H29.9172ZM31.9745 80.8649H34.3598C34.6082 80.8649 34.8318 80.7953 35.0306 80.6562C35.2294 80.517 35.3884 80.3183 35.5077 80.0599C35.6269 79.7915 35.6866 79.4884 35.6866 79.1505C35.6866 78.7828 35.617 78.4697 35.4778 78.2113C35.3486 77.9529 35.1747 77.7591 34.9561 77.6299C34.7474 77.5007 34.5188 77.4361 34.2703 77.4361H31.9745V80.8649ZM38.3731 83.9061C38.3731 83.3992 38.5123 82.9569 38.7905 82.5793C39.0788 82.1917 39.4763 81.8935 39.9832 81.6848C40.49 81.4761 41.0714 81.3717 41.7274 81.3717C42.0554 81.3717 42.3883 81.3966 42.7262 81.4463C43.0641 81.496 43.3573 81.5755 43.6058 81.6848V81.2674C43.6058 80.7705 43.4567 80.3878 43.1585 80.1195C42.8703 79.8511 42.438 79.717 41.8616 79.717C41.4342 79.717 41.0267 79.7915 40.6391 79.9406C40.2515 80.0897 39.844 80.3083 39.4167 80.5965L38.7756 79.2846C39.2924 78.9467 39.8192 78.6933 40.3559 78.5243C40.9025 78.3554 41.4739 78.2709 42.0703 78.2709C43.1834 78.2709 44.048 78.5492 44.6642 79.1058C45.2904 79.6623 45.6034 80.4574 45.6034 81.491V83.9806C45.6034 84.1893 45.6382 84.3384 45.7078 84.4279C45.7873 84.5173 45.9115 84.572 46.0805 84.5918V86.2168C45.9016 86.2466 45.7376 86.2715 45.5885 86.2913C45.4494 86.3112 45.3301 86.3212 45.2307 86.3212C44.8332 86.3212 44.5301 86.2317 44.3213 86.0528C44.1226 85.8739 43.9983 85.6553 43.9486 85.3969L43.9039 84.9944C43.566 85.4317 43.1436 85.7696 42.6368 86.0081C42.1299 86.2466 41.6131 86.3659 41.0863 86.3659C40.5695 86.3659 40.1024 86.2615 39.685 86.0528C39.2775 85.8342 38.9545 85.541 38.716 85.1732C38.4874 84.7956 38.3731 84.3732 38.3731 83.9061ZM43.2331 84.3086C43.3424 84.1893 43.4318 84.0701 43.5014 83.9508C43.571 83.8315 43.6058 83.7222 43.6058 83.6228V82.8327C43.3672 82.7333 43.1088 82.6588 42.8306 82.6091C42.5523 82.5495 42.2889 82.5197 42.0404 82.5197C41.5236 82.5197 41.0963 82.6339 40.7584 82.8625C40.4304 83.0812 40.2664 83.3744 40.2664 83.7421C40.2664 83.9409 40.3211 84.1297 40.4304 84.3086C40.5397 84.4875 40.6987 84.6316 40.9074 84.7409C41.1162 84.8502 41.3646 84.9049 41.6528 84.9049C41.951 84.9049 42.2442 84.8502 42.5324 84.7409C42.8206 84.6217 43.0542 84.4775 43.2331 84.3086ZM52.0784 85.8143C51.9095 85.8839 51.7057 85.9634 51.4672 86.0528C51.2287 86.1423 50.9703 86.2118 50.692 86.2615C50.4237 86.3212 50.1504 86.351 49.8721 86.351C49.5043 86.351 49.1664 86.2864 48.8583 86.1572C48.5502 86.028 48.3018 85.8242 48.1129 85.5459C47.9341 85.2577 47.8446 84.885 47.8446 84.4279V79.9406H46.816V78.4051H47.8446V75.8708H49.8423V78.4051H51.4821V79.9406H49.8423V83.757C49.8522 84.0253 49.9267 84.2191 50.0659 84.3384C50.205 84.4577 50.3789 84.5173 50.5876 84.5173C50.7964 84.5173 51.0001 84.4825 51.1989 84.4129C51.3976 84.3434 51.5567 84.2837 51.6759 84.2341L52.0784 85.8143ZM53.1188 86.2168V78.4051H55.1165V86.2168H53.1188ZM53.1188 77.3168V75.3341H55.1165V77.3168H53.1188ZM60.5412 86.3659C59.9151 86.3659 59.3486 86.2615 58.8417 86.0528C58.3348 85.8342 57.9025 85.541 57.5447 85.1732C57.1869 84.7956 56.9087 84.3682 56.7099 83.8912C56.521 83.4042 56.4266 82.8923 56.4266 82.3557C56.4266 81.6103 56.5906 80.9295 56.9186 80.3133C57.2565 79.6971 57.7336 79.2051 58.3497 78.8374C58.9759 78.4597 59.7113 78.2709 60.5561 78.2709C61.4108 78.2709 62.1413 78.4597 62.7476 78.8374C63.3538 79.2051 63.816 79.6971 64.134 80.3133C64.462 80.9195 64.6259 81.5755 64.6259 82.2811C64.6259 82.4004 64.621 82.5246 64.611 82.6538C64.6011 82.7731 64.5912 82.8725 64.5812 82.952H58.5435C58.5833 83.3495 58.6976 83.6974 58.8864 83.9955C59.0852 84.2937 59.3337 84.5223 59.6318 84.6813C59.9399 84.8304 60.2679 84.9049 60.6157 84.9049C61.0133 84.9049 61.386 84.8105 61.7338 84.6217C62.0916 84.4229 62.3351 84.1645 62.4643 83.8464L64.1787 84.3235C63.9899 84.721 63.7166 85.0739 63.3588 85.382C63.0109 85.6901 62.5985 85.9335 62.1214 86.1124C61.6444 86.2814 61.1176 86.3659 60.5412 86.3659ZM58.4988 81.6848H62.5836C62.5438 81.2873 62.4295 80.9444 62.2407 80.6562C62.0618 80.358 61.8233 80.1294 61.5251 79.9704C61.227 79.8015 60.894 79.717 60.5263 79.717C60.1685 79.717 59.8405 79.8015 59.5424 79.9704C59.2542 80.1294 59.0156 80.358 58.8268 80.6562C58.6479 80.9444 58.5386 81.2873 58.4988 81.6848ZM73.103 86.2168H71.1054V81.8339C71.1054 81.2078 70.9961 80.7506 70.7774 80.4624C70.5588 80.1742 70.2556 80.03 69.868 80.03C69.5997 80.03 69.3264 80.0996 69.0481 80.2388C68.7798 80.3779 68.5363 80.5717 68.3176 80.8202C68.099 81.0587 67.94 81.337 67.8406 81.655V86.2168H65.8429V78.4051H67.6468V79.8511C67.8455 79.5132 68.099 79.23 68.4071 79.0014C68.7152 78.7629 69.068 78.584 69.4655 78.4647C69.873 78.3355 70.3004 78.2709 70.7476 78.2709C71.2346 78.2709 71.6321 78.3604 71.9402 78.5393C72.2583 78.7082 72.4968 78.9418 72.6558 79.2399C72.8248 79.5281 72.9391 79.8561 72.9987 80.2238C73.0683 80.5916 73.103 80.9643 73.103 81.3419V86.2168ZM79.4774 85.8143C79.3085 85.8839 79.1047 85.9634 78.8662 86.0528C78.6277 86.1423 78.3693 86.2118 78.091 86.2615C77.8226 86.3212 77.5493 86.351 77.2711 86.351C76.9033 86.351 76.5654 86.2864 76.2573 86.1572C75.9492 86.028 75.7008 85.8242 75.5119 85.5459C75.333 85.2577 75.2436 84.885 75.2436 84.4279V79.9406H74.215V78.4051H75.2436V75.8708H77.2412V78.4051H78.8811V79.9406H77.2412V83.757C77.2512 84.0253 77.3257 84.2191 77.4649 84.3384C77.604 84.4577 77.7779 84.5173 77.9866 84.5173C78.1953 84.5173 78.3991 84.4825 78.5979 84.4129C78.7966 84.3434 78.9556 84.2837 79.0749 84.2341L79.4774 85.8143ZM83.395 86.3659C82.7292 86.3659 82.0931 86.2566 81.4868 86.0379C80.8806 85.8193 80.3588 85.4963 79.9215 85.0689L80.6371 83.7719C81.1042 84.1496 81.5614 84.4279 82.0086 84.6067C82.4658 84.7856 82.9031 84.8751 83.3205 84.8751C83.7081 84.8751 84.0162 84.8055 84.2448 84.6664C84.4833 84.5272 84.6026 84.3185 84.6026 84.0403C84.6026 83.8514 84.538 83.7073 84.4088 83.6079C84.2796 83.4986 84.0907 83.4042 83.8423 83.3247C83.6037 83.2452 83.3106 83.1557 82.9627 83.0563C82.3863 82.8675 81.9043 82.6836 81.5166 82.5047C81.129 82.3258 80.8359 82.1022 80.6371 81.8339C80.4483 81.5556 80.3538 81.2028 80.3538 80.7754C80.3538 80.2586 80.483 79.8164 80.7414 79.4486C81.0098 79.071 81.3775 78.7778 81.8446 78.5691C82.3217 78.3604 82.8782 78.256 83.5143 78.256C84.0709 78.256 84.5976 78.3455 85.0945 78.5243C85.5915 78.6933 86.0437 78.9716 86.4511 79.3592L85.6461 80.6264C85.2486 80.3183 84.8709 80.0946 84.5131 79.9555C84.1553 79.8064 83.7926 79.7319 83.4249 79.7319C83.2161 79.7319 83.0174 79.7567 82.8285 79.8064C82.6496 79.8561 82.5006 79.9406 82.3813 80.0599C82.272 80.1692 82.2173 80.3282 82.2173 80.5369C82.2173 80.7257 82.267 80.8748 82.3664 80.9841C82.4757 81.0835 82.6347 81.173 82.8434 81.2525C83.0621 81.332 83.3255 81.4214 83.6336 81.5208C84.2597 81.6997 84.7864 81.8836 85.2138 82.0724C85.6511 82.2612 85.9791 82.4948 86.1977 82.7731C86.4164 83.0414 86.5257 83.4141 86.5257 83.8912C86.5257 84.6664 86.2424 85.2726 85.6759 85.7099C85.1094 86.1472 84.3491 86.3659 83.395 86.3659Z" fill="black"/>
<path d="M265.993 86.2168V75.6322H270.481C270.968 75.6322 271.415 75.7316 271.822 75.9304C272.23 76.1292 272.583 76.3975 272.881 76.7354C273.189 77.0733 273.428 77.451 273.596 77.8684C273.765 78.2858 273.85 78.7132 273.85 79.1505C273.85 79.7468 273.711 80.3133 273.432 80.85C273.154 81.3867 272.772 81.824 272.285 82.1619C271.798 82.4998 271.221 82.6687 270.555 82.6687H268.051V86.2168H265.993ZM268.051 80.8649H270.436C270.684 80.8649 270.908 80.7953 271.107 80.6562C271.306 80.517 271.465 80.3183 271.584 80.0599C271.703 79.7915 271.763 79.4884 271.763 79.1505C271.763 78.7828 271.693 78.4697 271.554 78.2113C271.425 77.9529 271.251 77.7591 271.032 77.6299C270.824 77.5007 270.595 77.4361 270.347 77.4361H268.051V80.8649ZM274.449 83.9061C274.449 83.3992 274.589 82.9569 274.867 82.5793C275.155 82.1917 275.553 81.8935 276.059 81.6848C276.566 81.4761 277.148 81.3717 277.804 81.3717C278.132 81.3717 278.465 81.3966 278.802 81.4463C279.14 81.496 279.434 81.5755 279.682 81.6848V81.2674C279.682 80.7705 279.533 80.3878 279.235 80.1195C278.947 79.8511 278.514 79.717 277.938 79.717C277.51 79.717 277.103 79.7915 276.715 79.9406C276.328 80.0897 275.92 80.3083 275.493 80.5965L274.852 79.2846C275.369 78.9467 275.895 78.6933 276.432 78.5243C276.979 78.3554 277.55 78.2709 278.147 78.2709C279.26 78.2709 280.124 78.5492 280.74 79.1058C281.367 79.6623 281.68 80.4574 281.68 81.491V83.9806C281.68 84.1893 281.714 84.3384 281.784 84.4279C281.864 84.5173 281.988 84.572 282.157 84.5918V86.2168C281.978 86.2466 281.814 86.2715 281.665 86.2913C281.526 86.3112 281.406 86.3212 281.307 86.3212C280.909 86.3212 280.606 86.2317 280.398 86.0528C280.199 85.8739 280.075 85.6553 280.025 85.3969L279.98 84.9944C279.642 85.4317 279.22 85.7696 278.713 86.0081C278.206 86.2466 277.689 86.3659 277.163 86.3659C276.646 86.3659 276.179 86.2615 275.761 86.0528C275.354 85.8342 275.031 85.541 274.792 85.1732C274.564 84.7956 274.449 84.3732 274.449 83.9061ZM279.309 84.3086C279.419 84.1893 279.508 84.0701 279.578 83.9508C279.647 83.8315 279.682 83.7222 279.682 83.6228V82.8327C279.444 82.7333 279.185 82.6588 278.907 82.6091C278.629 82.5495 278.365 82.5197 278.117 82.5197C277.6 82.5197 277.173 82.6339 276.835 82.8625C276.507 83.0812 276.343 83.3744 276.343 83.7421C276.343 83.9409 276.397 84.1297 276.507 84.3086C276.616 84.4875 276.775 84.6316 276.984 84.7409C277.192 84.8502 277.441 84.9049 277.729 84.9049C278.027 84.9049 278.32 84.8502 278.609 84.7409C278.897 84.6217 279.13 84.4775 279.309 84.3086ZM283.419 87.7374C283.598 87.7772 283.762 87.8119 283.911 87.8418C284.07 87.8716 284.204 87.8865 284.314 87.8865C284.503 87.8865 284.657 87.8368 284.776 87.7374C284.905 87.648 285.029 87.479 285.149 87.2305C285.268 86.992 285.392 86.6541 285.521 86.2168L282.435 78.4051H284.508L286.61 84.1744L288.458 78.4051H290.366L287.087 87.7672C286.967 88.1151 286.783 88.4281 286.535 88.7064C286.296 88.9946 285.993 89.2182 285.626 89.3773C285.268 89.5462 284.865 89.6307 284.418 89.6307C284.259 89.6307 284.1 89.6158 283.941 89.586C283.782 89.5661 283.608 89.5263 283.419 89.4667V87.7374ZM294.812 86.3659C294.186 86.3659 293.62 86.2615 293.113 86.0528C292.606 85.8342 292.174 85.541 291.816 85.1732C291.458 84.7956 291.18 84.3682 290.981 83.8912C290.792 83.4042 290.698 82.8923 290.698 82.3557C290.698 81.6103 290.862 80.9295 291.19 80.3133C291.528 79.6971 292.005 79.2051 292.621 78.8374C293.247 78.4597 293.982 78.2709 294.827 78.2709C295.682 78.2709 296.412 78.4597 297.019 78.8374C297.625 79.2051 298.087 79.6971 298.405 80.3133C298.733 80.9195 298.897 81.5755 298.897 82.2811C298.897 82.4004 298.892 82.5246 298.882 82.6538C298.872 82.7731 298.862 82.8725 298.852 82.952H292.815C292.854 83.3495 292.969 83.6974 293.157 83.9955C293.356 84.2937 293.605 84.5223 293.903 84.6813C294.211 84.8304 294.539 84.9049 294.887 84.9049C295.284 84.9049 295.657 84.8105 296.005 84.6217C296.363 84.4229 296.606 84.1645 296.735 83.8464L298.45 84.3235C298.261 84.721 297.988 85.0739 297.63 85.382C297.282 85.6901 296.869 85.9335 296.392 86.1124C295.915 86.2814 295.389 86.3659 294.812 86.3659ZM292.77 81.6848H296.855C296.815 81.2873 296.701 80.9444 296.512 80.6562C296.333 80.358 296.094 80.1294 295.796 79.9704C295.498 79.8015 295.165 79.717 294.797 79.717C294.44 79.717 294.112 79.8015 293.813 79.9704C293.525 80.1294 293.287 80.358 293.098 80.6562C292.919 80.9444 292.81 81.2873 292.77 81.6848ZM304.765 80.1344C304.159 80.1344 303.617 80.2537 303.14 80.4922C302.663 80.7208 302.32 81.0537 302.112 81.491V86.2168H300.114V78.4051H301.948V80.0748C302.226 79.5381 302.579 79.1157 303.006 78.8076C303.433 78.4995 303.886 78.3305 304.363 78.3007C304.472 78.3007 304.556 78.3007 304.616 78.3007C304.676 78.3007 304.725 78.3057 304.765 78.3156V80.1344ZM308.756 86.3659C308.09 86.3659 307.454 86.2566 306.848 86.0379C306.242 85.8193 305.72 85.4963 305.283 85.0689L305.998 83.7719C306.465 84.1496 306.923 84.4279 307.37 84.6067C307.827 84.7856 308.264 84.8751 308.682 84.8751C309.069 84.8751 309.377 84.8055 309.606 84.6664C309.845 84.5272 309.964 84.3185 309.964 84.0403C309.964 83.8514 309.899 83.7073 309.77 83.6079C309.641 83.4986 309.452 83.4042 309.204 83.3247C308.965 83.2452 308.672 83.1557 308.324 83.0563C307.748 82.8675 307.266 82.6836 306.878 82.5047C306.49 82.3258 306.197 82.1022 305.998 81.8339C305.81 81.5556 305.715 81.2028 305.715 80.7754C305.715 80.2586 305.844 79.8164 306.103 79.4486C306.371 79.071 306.739 78.7778 307.206 78.5691C307.683 78.3604 308.239 78.256 308.876 78.256C309.432 78.256 309.959 78.3455 310.456 78.5243C310.953 78.6933 311.405 78.9716 311.812 79.3592L311.007 80.6264C310.61 80.3183 310.232 80.0946 309.874 79.9555C309.517 79.8064 309.154 79.7319 308.786 79.7319C308.577 79.7319 308.379 79.7567 308.19 79.8064C308.011 79.8561 307.862 79.9406 307.743 80.0599C307.633 80.1692 307.579 80.3282 307.579 80.5369C307.579 80.7257 307.628 80.8748 307.728 80.9841C307.837 81.0835 307.996 81.173 308.205 81.2525C308.423 81.332 308.687 81.4214 308.995 81.5208C309.621 81.6997 310.148 81.8836 310.575 82.0724C311.012 82.2612 311.34 82.4948 311.559 82.7731C311.778 83.0414 311.887 83.4141 311.887 83.8912C311.887 84.6664 311.604 85.2726 311.037 85.7099C310.471 86.1472 309.71 86.3659 308.756 86.3659Z" fill="black"/>
<line x1="92.4633" y1="176.849" x2="59.4548" y2="196.369" stroke="#06D9E0" stroke-width="0.88393" stroke-dasharray="5.3 5.3"/>
<line x1="323.381" y1="176.849" x2="290.373" y2="196.369" stroke="#06D9E0" stroke-width="0.88393" stroke-dasharray="5.3 5.3"/>
<path d="M57.5276 129.165L107.947 158.6L57.601 187.899L7.17174 158.693L57.5276 129.165Z" fill="#B9DFE4"/>
<path d="M7.13281 158.568L57.5986 187.898L57.4889 201.869L7.13281 172.527L7.13281 158.568Z" fill="#65B8C3"/>
<path d="M107.938 158.568L57.5775 187.908L57.4839 201.873L107.937 172.527L107.938 158.568Z" fill="#99D0D7"/>
<path d="M287.68 128.828L338.889 158.264L288.543 187.563L238.114 158.357L287.68 128.828Z" fill="#0BD0CA"/>
<path d="M238.07 158.233L288.536 187.563L288.426 201.534L238.07 172.191L238.07 158.233Z" fill="#08918D"/>
<path d="M338.875 158.233L288.515 187.573L288.421 201.538L338.875 172.191L338.875 158.233Z" fill="#09AAA5"/>
<line x1="171.965" y1="21.6577" x2="171.965" y2="56.5941" stroke="#B9DFE4" stroke-width="0.88393" stroke-dasharray="3.54 3.54"/>
<line x1="171.965" y1="21.6577" x2="171.965" y2="56.5941" stroke="#73DADD" stroke-width="0.88393" stroke-dasharray="3.54 3.54"/>
<path d="M172.043 56.1736L223.253 85.6096L172.906 114.908L122.477 85.7024L172.043 56.1736Z" fill="#73DADD"/>
<path d="M122.434 85.5781L172.899 114.908L172.79 128.879L122.434 99.5366L122.434 85.5781Z" fill="#2FC0C5"/>
<path d="M223.238 85.5781L172.878 114.918L172.785 128.883L223.238 99.5366L223.238 85.5781Z" fill="#4ED0D5"/>
<path d="M140.658 11.915V1.33047H145.145C145.632 1.33047 146.079 1.42985 146.487 1.62863C146.894 1.8274 147.247 2.09574 147.545 2.43365C147.853 2.77156 148.092 3.14923 148.261 3.56665C148.43 3.98407 148.514 4.41142 148.514 4.84872C148.514 5.44503 148.375 6.01153 148.097 6.54821C147.818 7.0849 147.436 7.52219 146.949 7.86011C146.462 8.19802 145.885 8.36697 145.219 8.36697H142.715V11.915H140.658ZM142.715 6.56312H145.1C145.349 6.56312 145.572 6.49355 145.771 6.35441C145.97 6.21527 146.129 6.0165 146.248 5.7581C146.367 5.48976 146.427 5.18663 146.427 4.84872C146.427 4.48099 146.357 4.16793 146.218 3.90953C146.089 3.65112 145.915 3.45732 145.697 3.32812C145.488 3.19892 145.259 3.13432 145.011 3.13432H142.715V6.56312ZM154.403 5.83264C153.797 5.83264 153.255 5.9519 152.778 6.19043C152.301 6.41901 151.959 6.75196 151.75 7.18925V11.915H149.752V4.10333H151.586V5.77301C151.864 5.23632 152.217 4.81394 152.644 4.50584C153.072 4.19774 153.524 4.02879 154.001 3.99897C154.11 3.99897 154.195 3.99897 154.254 3.99897C154.314 3.99897 154.364 4.00394 154.403 4.01388V5.83264ZM159.023 12.0641C158.387 12.0641 157.816 11.9598 157.309 11.7511C156.802 11.5324 156.369 11.2342 156.012 10.8566C155.664 10.4789 155.396 10.0466 155.207 9.5596C155.018 9.07261 154.923 8.56077 154.923 8.02409C154.923 7.47747 155.018 6.96067 155.207 6.47368C155.396 5.98669 155.664 5.55436 156.012 5.17669C156.369 4.79903 156.802 4.50584 157.309 4.29713C157.816 4.07848 158.387 3.96916 159.023 3.96916C159.659 3.96916 160.226 4.07848 160.723 4.29713C161.229 4.50584 161.662 4.79903 162.02 5.17669C162.377 5.55436 162.646 5.98669 162.825 6.47368C163.013 6.96067 163.108 7.47747 163.108 8.02409C163.108 8.56077 163.013 9.07261 162.825 9.5596C162.646 10.0466 162.377 10.4789 162.02 10.8566C161.672 11.2342 161.244 11.5324 160.737 11.7511C160.231 11.9598 159.659 12.0641 159.023 12.0641ZM156.981 8.02409C156.981 8.48127 157.07 8.88875 157.249 9.24653C157.428 9.59438 157.671 9.86769 157.98 10.0665C158.288 10.2652 158.635 10.3646 159.023 10.3646C159.401 10.3646 159.744 10.2652 160.052 10.0665C160.36 9.85776 160.603 9.57948 160.782 9.23163C160.971 8.87384 161.065 8.46636 161.065 8.00918C161.065 7.56195 160.971 7.15944 160.782 6.80165C160.603 6.44386 160.36 6.16558 160.052 5.96681C159.744 5.76804 159.401 5.66865 159.023 5.66865C158.635 5.66865 158.288 5.77301 157.98 5.98172C157.671 6.18049 157.428 6.45877 157.249 6.81656C157.07 7.16441 156.981 7.56692 156.981 8.02409ZM166.296 11.915L163.419 4.10333H165.491L167.459 10.0963L169.442 4.10333H171.335L168.473 11.915H166.296ZM172.391 11.915V4.10333H174.388V11.915H172.391ZM172.391 3.01506V1.03231H174.388V3.01506H172.391ZM175.713 8.00918C175.713 7.25385 175.862 6.57306 176.16 5.96681C176.459 5.35062 176.871 4.86363 177.398 4.50584C177.925 4.14805 178.526 3.96916 179.202 3.96916C179.778 3.96916 180.295 4.11327 180.752 4.40149C181.219 4.67977 181.582 5.03755 181.84 5.47485V1.03231H183.838V9.67886C183.838 9.88757 183.873 10.0367 183.942 10.1261C184.012 10.2155 184.131 10.2702 184.3 10.2901V11.915C183.952 11.9846 183.669 12.0194 183.45 12.0194C183.093 12.0194 182.794 11.9299 182.556 11.7511C182.327 11.5722 182.198 11.3386 182.168 11.0504L182.139 10.5584C181.85 11.0454 181.458 11.4181 180.961 11.6765C180.474 11.9349 179.962 12.0641 179.425 12.0641C178.889 12.0641 178.392 11.9598 177.934 11.7511C177.487 11.5423 177.095 11.2541 176.757 10.8864C176.429 10.5187 176.17 10.0913 175.982 9.60432C175.803 9.10739 175.713 8.57568 175.713 8.00918ZM181.84 9.05273V7.18925C181.741 6.90103 181.582 6.64263 181.363 6.41404C181.145 6.18546 180.901 6.00656 180.633 5.87736C180.364 5.73822 180.096 5.66865 179.828 5.66865C179.52 5.66865 179.241 5.73325 178.993 5.86245C178.744 5.99166 178.526 6.16558 178.337 6.38423C178.158 6.60288 178.019 6.85631 177.92 7.14453C177.83 7.43275 177.785 7.73587 177.785 8.05391C177.785 8.37194 177.835 8.67507 177.934 8.96329C178.044 9.24157 178.198 9.48506 178.397 9.69377C178.595 9.90248 178.824 10.0665 179.082 10.1857C179.351 10.305 179.639 10.3646 179.947 10.3646C180.136 10.3646 180.325 10.3348 180.514 10.2752C180.712 10.2056 180.896 10.1162 181.065 10.0068C181.244 9.88757 181.398 9.74843 181.527 9.58942C181.666 9.42046 181.771 9.24157 181.84 9.05273ZM189.421 12.0641C188.795 12.0641 188.229 11.9598 187.722 11.7511C187.215 11.5324 186.783 11.2392 186.425 10.8715C186.067 10.4938 185.789 10.0665 185.59 9.58942C185.401 9.10243 185.307 8.59059 185.307 8.05391C185.307 7.30851 185.471 6.62772 185.799 6.01153C186.137 5.39534 186.614 4.90338 187.23 4.53566C187.856 4.15799 188.592 3.96916 189.436 3.96916C190.291 3.96916 191.022 4.15799 191.628 4.53566C192.234 4.90338 192.696 5.39534 193.014 6.01153C193.342 6.61778 193.506 7.27373 193.506 7.97937C193.506 8.09863 193.501 8.22286 193.491 8.35206C193.481 8.47133 193.471 8.57071 193.461 8.65022H187.424C187.464 9.04776 187.578 9.39561 187.767 9.69377C187.965 9.99193 188.214 10.2205 188.512 10.3795C188.82 10.5286 189.148 10.6031 189.496 10.6031C189.894 10.6031 190.266 10.5087 190.614 10.3199C190.972 10.1211 191.215 9.86273 191.345 9.54469L193.059 10.0217C192.87 10.4193 192.597 10.7721 192.239 11.0802C191.891 11.3883 191.479 11.6318 191.002 11.8107C190.525 11.9796 189.998 12.0641 189.421 12.0641ZM187.379 7.38305H191.464C191.424 6.98551 191.31 6.64263 191.121 6.35441C190.942 6.05626 190.704 5.82767 190.405 5.66865C190.107 5.4997 189.774 5.41522 189.407 5.41522C189.049 5.41522 188.721 5.4997 188.423 5.66865C188.134 5.82767 187.896 6.05626 187.707 6.35441C187.528 6.64263 187.419 6.98551 187.379 7.38305ZM199.374 5.83264C198.768 5.83264 198.227 5.9519 197.749 6.19043C197.272 6.41901 196.93 6.75196 196.721 7.18925V11.915H194.723V4.10333H196.557V5.77301C196.835 5.23632 197.188 4.81394 197.615 4.50584C198.043 4.19774 198.495 4.02879 198.972 3.99897C199.081 3.99897 199.166 3.99897 199.225 3.99897C199.285 3.99897 199.335 4.00394 199.374 4.01388V5.83264ZM203.366 12.0641C202.7 12.0641 202.064 11.9548 201.457 11.7361C200.851 11.5175 200.329 11.1945 199.892 10.7671L200.608 9.47015C201.075 9.84782 201.532 10.1261 201.979 10.305C202.436 10.4839 202.874 10.5733 203.291 10.5733C203.679 10.5733 203.987 10.5038 204.215 10.3646C204.454 10.2255 204.573 10.0168 204.573 9.73849C204.573 9.54966 204.508 9.40555 204.379 9.30617C204.25 9.19684 204.061 9.10243 203.813 9.02292C203.574 8.94341 203.281 8.85396 202.933 8.75458C202.357 8.56574 201.875 8.38188 201.487 8.20299C201.1 8.02409 200.806 7.80047 200.608 7.53213C200.419 7.25385 200.324 6.90103 200.324 6.47368C200.324 5.95687 200.454 5.5146 200.712 5.14688C200.98 4.76921 201.348 4.47602 201.815 4.26731C202.292 4.0586 202.849 3.95425 203.485 3.95425C204.041 3.95425 204.568 4.0437 205.065 4.22259C205.562 4.39155 206.014 4.66983 206.422 5.05743L205.617 6.3246C205.219 6.0165 204.841 5.79288 204.484 5.65374C204.126 5.50467 203.763 5.43013 203.395 5.43013C203.187 5.43013 202.988 5.45497 202.799 5.50467C202.62 5.55436 202.471 5.63884 202.352 5.7581C202.242 5.86742 202.188 6.02644 202.188 6.23515C202.188 6.42398 202.238 6.57306 202.337 6.68239C202.446 6.78177 202.605 6.87122 202.814 6.95073C203.033 7.03024 203.296 7.11968 203.604 7.21907C204.23 7.39796 204.757 7.58183 205.184 7.77066C205.622 7.95949 205.95 8.19305 206.168 8.47133C206.387 8.73967 206.496 9.11236 206.496 9.58942C206.496 10.3646 206.213 10.9709 205.646 11.4082C205.08 11.8455 204.32 12.0641 203.366 12.0641Z" fill="black"/>
<line x1="402.883" y1="21.6577" x2="402.883" y2="56.5941" stroke="#B9DFE4" stroke-width="0.88393" stroke-dasharray="3.54 3.54"/>
<line x1="402.883" y1="21.6577" x2="402.883" y2="56.5941" stroke="#009994" stroke-width="0.88393" stroke-dasharray="3.54 3.54"/>
<path d="M402.692 56.5525L453.901 85.9885L403.554 115.287L353.125 86.0813L402.692 56.5525Z" fill="#009994"/>
<path d="M353.082 85.957L403.548 115.287L403.438 129.258L353.082 99.9156L353.082 85.957Z" fill="#007572"/>
<path d="M453.887 85.957L403.527 115.297L403.433 129.262L453.887 99.9156L453.887 85.957Z" fill="#00827E"/>
<path d="M373.859 12.2939V1.70938H378.347C378.834 1.70938 379.281 1.80876 379.688 2.00753C380.096 2.2063 380.449 2.47464 380.747 2.81256C381.055 3.15047 381.294 3.52813 381.462 3.94555C381.631 4.36297 381.716 4.79033 381.716 5.22763C381.716 5.82394 381.577 6.39044 381.298 6.92712C381.02 7.4638 380.638 7.9011 380.151 8.23901C379.664 8.57692 379.087 8.74588 378.421 8.74588H375.917V12.2939H373.859ZM375.917 6.94203H378.302C378.55 6.94203 378.774 6.87246 378.973 6.73332C379.172 6.59418 379.331 6.39541 379.45 6.13701C379.569 5.86866 379.629 5.56554 379.629 5.22763C379.629 4.8599 379.559 4.54684 379.42 4.28843C379.291 4.03003 379.117 3.83623 378.898 3.70703C378.69 3.57782 378.461 3.51322 378.213 3.51322H375.917V6.94203ZM387.605 6.21154C386.999 6.21154 386.457 6.33081 385.98 6.56933C385.503 6.79792 385.16 7.13086 384.952 7.56816V12.2939H382.954V4.48223H384.788V6.15191C385.066 5.61523 385.419 5.19284 385.846 4.88475C386.273 4.57665 386.726 4.4077 387.203 4.37788C387.312 4.37788 387.397 4.37788 387.456 4.37788C387.516 4.37788 387.565 4.38285 387.605 4.39279V6.21154ZM392.225 12.443C391.589 12.443 391.017 12.3387 390.51 12.13C390.004 11.9113 389.571 11.6132 389.214 11.2355C388.866 10.8578 388.597 10.4255 388.408 9.93851C388.22 9.45152 388.125 8.93968 388.125 8.403C388.125 7.85638 388.22 7.33957 388.408 6.85258C388.597 6.36559 388.866 5.93326 389.214 5.5556C389.571 5.17793 390.004 4.88475 390.51 4.67604C391.017 4.45739 391.589 4.34806 392.225 4.34806C392.861 4.34806 393.427 4.45739 393.924 4.67604C394.431 4.88475 394.864 5.17793 395.221 5.5556C395.579 5.93326 395.848 6.36559 396.026 6.85258C396.215 7.33957 396.31 7.85638 396.31 8.403C396.31 8.93968 396.215 9.45152 396.026 9.93851C395.848 10.4255 395.579 10.8578 395.221 11.2355C394.874 11.6132 394.446 11.9113 393.939 12.13C393.432 12.3387 392.861 12.443 392.225 12.443ZM390.183 8.403C390.183 8.86017 390.272 9.26765 390.451 9.62544C390.63 9.97329 390.873 10.2466 391.181 10.4454C391.489 10.6441 391.837 10.7435 392.225 10.7435C392.603 10.7435 392.945 10.6441 393.254 10.4454C393.562 10.2367 393.805 9.95838 393.984 9.61053C394.173 9.25274 394.267 8.84526 394.267 8.38809C394.267 7.94085 394.173 7.53834 393.984 7.18055C393.805 6.82277 393.562 6.54449 393.254 6.34572C392.945 6.14694 392.603 6.04756 392.225 6.04756C391.837 6.04756 391.489 6.15191 391.181 6.36062C390.873 6.55939 390.63 6.83767 390.451 7.19546C390.272 7.54331 390.183 7.94582 390.183 8.403ZM400.714 12.3387C400.197 12.3387 399.72 12.2393 399.283 12.0405C398.856 11.8318 398.483 11.5436 398.165 11.1759C397.857 10.8081 397.618 10.3857 397.449 9.90869C397.28 9.43164 397.196 8.92477 397.196 8.38809C397.196 7.82159 397.285 7.29485 397.464 6.80786C397.643 6.32087 397.892 5.89351 398.21 5.52578C398.538 5.14812 398.92 4.8599 399.357 4.66113C399.805 4.45242 400.297 4.34806 400.833 4.34806C401.44 4.34806 401.971 4.4872 402.429 4.76548C402.886 5.03382 403.263 5.39658 403.562 5.85376V4.48223H405.306V11.9212C405.306 12.6965 405.117 13.3574 404.739 13.904C404.371 14.4606 403.86 14.8829 403.204 15.1712C402.548 15.4693 401.802 15.6184 400.968 15.6184C400.123 15.6184 399.407 15.4743 398.821 15.1861C398.234 14.9078 397.733 14.5102 397.315 13.9934L398.403 12.935C398.702 13.3027 399.074 13.5909 399.521 13.7996C399.979 14.0083 400.461 14.1127 400.968 14.1127C401.395 14.1127 401.782 14.0332 402.13 13.8742C402.488 13.7251 402.771 13.4866 402.98 13.1586C403.199 12.8406 403.308 12.4281 403.308 11.9212V10.9373C403.05 11.3846 402.682 11.7324 402.205 11.9809C401.738 12.2194 401.241 12.3387 400.714 12.3387ZM401.385 10.7435C401.604 10.7435 401.812 10.7087 402.011 10.6392C402.21 10.5696 402.394 10.4752 402.563 10.3559C402.732 10.2367 402.881 10.0975 403.01 9.93851C403.139 9.76955 403.238 9.60059 403.308 9.43164V7.56816C403.189 7.26006 403.02 6.99172 402.801 6.76313C402.592 6.53455 402.354 6.36062 402.086 6.24136C401.827 6.11216 401.554 6.04756 401.266 6.04756C400.958 6.04756 400.679 6.11216 400.431 6.24136C400.182 6.37056 399.969 6.55443 399.79 6.79295C399.611 7.02154 399.472 7.27994 399.372 7.56816C399.283 7.84644 399.238 8.13963 399.238 8.44772C399.238 8.76576 399.293 9.06391 399.402 9.34219C399.512 9.62047 399.661 9.86397 399.849 10.0727C400.048 10.2814 400.277 10.4454 400.535 10.5646C400.804 10.6839 401.087 10.7435 401.385 10.7435ZM411.758 6.21154C411.151 6.21154 410.61 6.33081 410.133 6.56933C409.656 6.79792 409.313 7.13086 409.104 7.56816V12.2939H407.106V4.48223H408.94V6.15191C409.218 5.61523 409.571 5.19284 409.999 4.88475C410.426 4.57665 410.878 4.4077 411.355 4.37788C411.464 4.37788 411.549 4.37788 411.609 4.37788C411.668 4.37788 411.718 4.38285 411.758 4.39279V6.21154ZM412.291 9.98323C412.291 9.47636 412.43 9.0341 412.709 8.65643C412.997 8.26883 413.394 7.97067 413.901 7.76196C414.408 7.55325 414.99 7.4489 415.645 7.4489C415.973 7.4489 416.306 7.47374 416.644 7.52343C416.982 7.57313 417.275 7.65264 417.524 7.76196V7.34454C417.524 6.84761 417.375 6.46498 417.077 6.19664C416.788 5.9283 416.356 5.79412 415.78 5.79412C415.352 5.79412 414.945 5.86866 414.557 6.01774C414.17 6.16682 413.762 6.38547 413.335 6.67369L412.694 5.3618C413.211 5.02389 413.737 4.77045 414.274 4.6015C414.821 4.43254 415.392 4.34806 415.988 4.34806C417.101 4.34806 417.966 4.62634 418.582 5.1829C419.208 5.73946 419.522 6.53455 419.522 7.56816V10.0578C419.522 10.2665 419.556 10.4156 419.626 10.505C419.705 10.5945 419.83 10.6491 419.999 10.669V12.2939C419.82 12.3238 419.656 12.3486 419.507 12.3685C419.367 12.3884 419.248 12.3983 419.149 12.3983C418.751 12.3983 418.448 12.3089 418.239 12.13C418.041 11.9511 417.916 11.7324 417.867 11.474L417.822 11.0715C417.484 11.5088 417.062 11.8467 416.555 12.0852C416.048 12.3238 415.531 12.443 415.004 12.443C414.488 12.443 414.021 12.3387 413.603 12.13C413.196 11.9113 412.873 11.6181 412.634 11.2504C412.406 10.8727 412.291 10.4503 412.291 9.98323ZM417.151 10.3857C417.26 10.2665 417.35 10.1472 417.42 10.028C417.489 9.90869 417.524 9.79937 417.524 9.69998V8.90986C417.285 8.81048 417.027 8.73594 416.749 8.68625C416.47 8.62662 416.207 8.5968 415.959 8.5968C415.442 8.5968 415.014 8.71109 414.676 8.93968C414.348 9.15833 414.185 9.45152 414.185 9.81924C414.185 10.018 414.239 10.2068 414.348 10.3857C414.458 10.5646 414.617 10.7087 414.826 10.8181C415.034 10.9274 415.283 10.9821 415.571 10.9821C415.869 10.9821 416.162 10.9274 416.45 10.8181C416.739 10.6988 416.972 10.5547 417.151 10.3857ZM433.523 12.2939H431.526V7.91104C431.526 7.29485 431.416 6.84264 431.198 6.55442C430.989 6.25627 430.696 6.10719 430.318 6.10719C429.93 6.10719 429.558 6.26124 429.2 6.56933C428.852 6.86749 428.604 7.26006 428.455 7.74705V12.2939H426.457V7.91104C426.457 7.28491 426.348 6.82774 426.129 6.53952C425.92 6.2513 425.627 6.10719 425.249 6.10719C424.862 6.10719 424.489 6.25627 424.131 6.55442C423.783 6.85258 423.535 7.24515 423.386 7.73214V12.2939H421.388V4.48223H423.192V5.9283C423.49 5.42143 423.888 5.03382 424.385 4.76548C424.882 4.4872 425.453 4.34806 426.099 4.34806C426.745 4.34806 427.247 4.50708 427.605 4.82511C427.973 5.14315 428.206 5.53572 428.305 6.00283C428.624 5.46615 429.026 5.05867 429.513 4.78039C430.01 4.49217 430.567 4.34806 431.183 4.34806C431.67 4.34806 432.062 4.43751 432.36 4.6164C432.669 4.78536 432.907 5.01892 433.076 5.31707C433.245 5.60529 433.359 5.93326 433.419 6.30099C433.488 6.66872 433.523 7.04141 433.523 7.41908V12.2939Z" fill="black"/>
<line x1="146.371" y1="106.553" x2="82.217" y2="143.944" stroke="#08918D" stroke-width="0.88393" stroke-dasharray="3.54 3.54"/>
<line y1="-0.441965" x2="74.2551" y2="-0.441965" transform="matrix(0.863968 0.503547 0.503547 -0.863968 199.82 106.171)" stroke="#08918D" stroke-width="0.88393" stroke-dasharray="3.54 3.54"/>
<line x1="377.297" y1="106.553" x2="313.143" y2="143.944" stroke="#08918D" stroke-width="0.88393" stroke-dasharray="3.54 3.54"/>
</svg>
