<svg xmlns="http://www.w3.org/2000/svg" xmlns:xlink="http://www.w3.org/1999/xlink" width="891.129" height="889.696" viewBox="0 0 891.129 889.696">
  <defs>
    <clipPath id="clip-path">
      <rect id="Rectangle_2979" data-name="Rectangle 2979" width="891.129" height="889.696" fill="#fafafa"/>
    </clipPath>
  </defs>
  <g id="Group_3307" data-name="Group 3307" clip-path="url(#clip-path)">
    <path id="Path_5799" data-name="Path 5799" d="M474.788,871.671a20.365,20.365,0,1,1,22.6,17.874,11.923,11.923,0,0,1-2.37.159,20.417,20.417,0,0,1-20.227-18.034m-80.926,17.874a20.186,20.186,0,1,1,2.37.159,21.35,21.35,0,0,1-2.37-.159M293.037,865.807a20.371,20.371,0,1,1,6.943,1.221,20.814,20.814,0,0,1-6.943-1.221m278.977-12.24A20.4,20.4,0,1,1,598.2,865.727a20.787,20.787,0,0,1-7.014,1.212,20.421,20.421,0,0,1-19.174-13.373M200.454,819.3a20.422,20.422,0,1,1,11.179,3.352,20.326,20.326,0,0,1-11.179-3.352M662.4,813.351a20.4,20.4,0,1,1,28.3,5.793,20.295,20.295,0,0,1-28.3-5.793m-541.318-60.61a20.4,20.4,0,1,1,28.877.823,20.505,20.505,0,0,1-28.877-.823m620.112.743a20.409,20.409,0,1,1,13.947,5.545,20.372,20.372,0,0,1-13.947-5.545m-682.022-83.7a20.583,20.583,0,1,1,17.7,10.118,20.422,20.422,0,0,1-17.7-10.118m744.914,7.27a20.363,20.363,0,1,1,10.2,2.768,20.424,20.424,0,0,1-10.2-2.768M18.058,574.757a20.364,20.364,0,1,1,25.374,13.62,19.412,19.412,0,0,1-5.873.893,20.311,20.311,0,0,1-19.5-14.514m829.59,13.452a20.517,20.517,0,1,1,5.873.823,21.06,21.06,0,0,1-5.873-.823M.033,472.791a20.389,20.389,0,1,1,21.456,19.166H20.269A20.317,20.317,0,0,1,.033,472.791m869.4,18.918a20.236,20.236,0,0,1-19.086-21.527v-.654a3.082,3.082,0,0,1,.08-.893A20.386,20.386,0,0,1,871.872,449.3c11.179.61,19.546,10.189,19.254,21.456-.009.239-.08.557-.08.8v.982a20.44,20.44,0,0,1-20.4,19.166ZM22.462,393.015a20.727,20.727,0,1,1,3.52.248,23.12,23.12,0,0,1-3.52-.248M844.72,374.583a20.382,20.382,0,1,1,40.127-7.182c1.963,11.082-5.333,21.987-16.477,23.738a22.208,22.208,0,0,1-3.591.239,20.393,20.393,0,0,1-20.059-16.8M46.041,296.842a20.3,20.3,0,1,1,8.075,1.707,20.438,20.438,0,0,1-8.075-1.707M817.462,284.6a20.349,20.349,0,1,1,18.688,12.241A20.4,20.4,0,0,1,817.462,284.6M91.315,208.823a20.526,20.526,0,1,1,12.161,4,20.4,20.4,0,0,1-12.161-4m678.838-5.545a20.4,20.4,0,1,1,16.318,8.154,20.343,20.343,0,0,1-16.318-8.154M155.6,133.61a20.44,20.44,0,1,1,15.663,7.261A20.361,20.361,0,0,1,155.6,133.61m549.8,1.309a20.254,20.254,0,1,1,13.045,4.811,20.158,20.158,0,0,1-13.045-4.811M235.451,75.211a20.4,20.4,0,1,1,18.184,11.17,20.419,20.419,0,0,1-18.184-11.17m391.221,8.154a20.452,20.452,0,1,1,9.057,2.114,20.328,20.328,0,0,1-9.057-2.114M326.566,36.712A20.42,20.42,0,1,1,351.206,51.8a19.936,19.936,0,0,1-4.82.566,20.4,20.4,0,0,1-19.82-15.654m211.6,14.761a20.6,20.6,0,1,1,4.643.486,21.3,21.3,0,0,1-4.643-.486M424.207,20.394a20.4,20.4,0,1,1,20.4,20.4,20.334,20.334,0,0,1-20.4-20.4" transform="translate(0.003 -0.008)" fill="#fafafa"/>
    <path id="Path_5800" data-name="Path 5800" d="M369.986,739.1a20.4,20.4,0,1,1,20.4-20.315,20.46,20.46,0,0,1-20.4,20.315M447.48,710.79a20.381,20.381,0,1,1,25.286,13.947,21.424,21.424,0,0,1-5.713.734A20.418,20.418,0,0,1,447.48,710.79M267.286,724a20.392,20.392,0,1,1,5.713.823,19.973,19.973,0,0,1-5.713-.823m271.875-48.37a20.377,20.377,0,1,1,28.143,6.2,19.957,19.957,0,0,1-10.923,3.175,20.285,20.285,0,0,1-17.22-9.375M172.908,680.6a20.331,20.331,0,1,1,11.011,3.272,20.408,20.408,0,0,1-11.011-3.272m444.4-64.519a20.357,20.357,0,1,1,13.381,5.05,20.011,20.011,0,0,1-13.381-5.05m-522.63-3.75a20.281,20.281,0,1,1,15.416,7.093,20.409,20.409,0,0,1-15.416-7.093m580.878-75.292a20.3,20.3,0,1,1,8.482,1.884,19.959,19.959,0,0,1-8.482-1.884M38.721,524.891A20.422,20.422,0,1,1,65.714,535a20.078,20.078,0,0,1-8.393,1.8,20.39,20.39,0,0,1-18.6-11.9M709,444.788a20.5,20.5,0,0,1-17.211-23.172c.08-.566.159-.893.159-1.141a20.4,20.4,0,0,1,40.383,5.793c0,.248-.088.575-.088.822a1.028,1.028,0,0,0-.08.486,20.411,20.411,0,0,1-20.148,17.37,19.208,19.208,0,0,1-3.016-.159M9.685,425.206a20.388,20.388,0,1,1,23.075,17.3,20.22,20.22,0,0,1-2.848.248A20.429,20.429,0,0,1,9.685,425.206m682.429-96.987a20.157,20.157,0,1,1,20.147,17.538,20.37,20.37,0,0,1-20.147-17.538M27.294,344.449a20.116,20.116,0,1,1,2.945.248,18.383,18.383,0,0,1-2.945-.248m638.88-104.735a20.386,20.386,0,1,1,26.993,10.109,20.59,20.59,0,0,1-8.473,1.8,20.345,20.345,0,0,1-18.52-11.9M49.494,248.85a20.562,20.562,0,1,1,8.482,1.787,20.343,20.343,0,0,1-8.482-1.787m566.834-86.71a20.571,20.571,0,1,1,15.424,7.014,20.427,20.427,0,0,1-15.424-7.014M97.784,163.361a20.469,20.469,0,1,1,13.373,4.971,20.362,20.362,0,0,1-13.373-4.971M546.758,101.61a20.6,20.6,0,1,1,11,3.184,20.2,20.2,0,0,1-11-3.184m-378.5-6.686a20.418,20.418,0,1,1,17.131,9.384,20.371,20.371,0,0,1-17.131-9.384M462.9,63.19a20.165,20.165,0,1,1,5.793.9,20.338,20.338,0,0,1-5.793-.9m-207.851-14.2A20.4,20.4,0,1,1,280.34,62.863a19.914,19.914,0,0,1-5.713.814,20.471,20.471,0,0,1-19.581-14.682m116.568.982a20.391,20.391,0,1,1,20.4-20.4,20.469,20.469,0,0,1-20.4,20.4" transform="translate(74.371 72.129)" fill="#fafafa"/>
    <path id="Path_5801" data-name="Path 5801" d="M326.018,561.449a20.434,20.434,0,1,1,23.738,16.389,19.8,19.8,0,0,1-3.67.327,20.4,20.4,0,0,1-20.068-16.716m-79.776,15.9a20.1,20.1,0,1,1,3.83.407,15.693,15.693,0,0,1-3.83-.407M418.521,534.28a20.421,20.421,0,1,1,17.379,9.7,20.39,20.39,0,0,1-17.379-9.7m-268.7,5.218a20.464,20.464,0,1,1,10.852,3.1,20.469,20.469,0,0,1-10.852-3.1m344.973-64.113a20.372,20.372,0,1,1,12.391,4.245,20.357,20.357,0,0,1-12.391-4.245M73.636,469.433a20.4,20.4,0,1,1,16.318,8.155,20.364,20.364,0,0,1-16.318-8.155M544.871,393.08a20.284,20.284,0,1,1,5.713.823,19.879,19.879,0,0,1-5.713-.823m-517-16.565a20.446,20.446,0,1,1,19.573,14.929,20.431,20.431,0,0,1-19.573-14.929m511.7-96.907c0-.486-.08-.646-.08-.893a20.394,20.394,0,1,1,40.622-3.67c0,.239.08.407.08.654v.486a20.487,20.487,0,0,1-18.511,22.022,16.116,16.116,0,0,1-1.8.08,20.4,20.4,0,0,1-20.315-18.679M37.091,295.686a20.475,20.475,0,1,1,1.955.08c-.654,0-1.309-.08-1.955-.08M515.508,193.472a20.392,20.392,0,1,1,27.329,9.216,20.706,20.706,0,0,1-9.057,2.123,20.409,20.409,0,0,1-18.272-11.338M56.425,201.308a20.6,20.6,0,1,1,9.216,2.114,20.395,20.395,0,0,1-9.216-2.114m405.814-78.635a20.384,20.384,0,1,1,28.8-1.229,20.125,20.125,0,0,1-15.009,6.607,20.484,20.484,0,0,1-13.788-5.377M108.713,120.3a20.376,20.376,0,1,1,15.088,6.686,20.4,20.4,0,0,1-15.088-6.686M387.035,75.851a20.462,20.462,0,1,1,7.5,1.38,21.227,21.227,0,0,1-7.5-1.38M186.614,63.531a20.383,20.383,0,1,1,26.347,11.745,19.927,19.927,0,0,1-7.341,1.38,20.387,20.387,0,0,1-19.006-13.125m113.544-4.166a20.391,20.391,0,1,1,20.4-20.4,20.447,20.447,0,0,1-20.4,20.4" transform="translate(146.155 145.779)" fill="#fafafa"/>
    <path id="Path_5802" data-name="Path 5802" d="M207.544,407.637a20.435,20.435,0,1,1,20.475,20.386,20.4,20.4,0,0,1-20.475-20.386m-79.617-6.279a20.593,20.593,0,1,1,10.2,2.689,20.4,20.4,0,0,1-10.2-2.689m172.208-7.589a20.424,20.424,0,1,1,17.618,10.109,20.4,20.4,0,0,1-17.618-10.109m-245.457-65.5a20.356,20.356,0,1,1,17.627,10.2,20.364,20.364,0,0,1-17.627-10.2M373.3,335.361a20.261,20.261,0,1,1,10.118,2.777,20.155,20.155,0,0,1-10.118-2.777M27.756,228.344a20.355,20.355,0,1,1,20.4,20.386,20.334,20.334,0,0,1-20.4-20.386m359.328-.407v-.655a20.4,20.4,0,0,1,40.79-.168v.823a20.4,20.4,0,0,1-40.79,0M61.78,156.157a20.44,20.44,0,1,1,10.109,2.68,20.382,20.382,0,0,1-10.109-2.68m303.688-8.411a20.4,20.4,0,1,1,17.618,10.118,20.454,20.454,0,0,1-17.618-10.118M119.852,82.819a20.437,20.437,0,1,1,27.9,7.332,20.134,20.134,0,0,1-10.2,2.786,20.414,20.414,0,0,1-17.706-10.118m187.129,6.846a20.414,20.414,0,1,1,10.118,2.7,20.346,20.346,0,0,1-10.118-2.7M206.81,48.309a20.391,20.391,0,1,1,20.484,20.315A20.47,20.47,0,0,1,206.81,48.309" transform="translate(217.727 218.339)" fill="#fafafa"/>
    <path id="Path_5803" data-name="Path 5803" d="M144.621,275.647a20.4,20.4,0,1,1,20.4-20.475,20.413,20.413,0,0,1-20.4,20.475M41.257,216.1a20.28,20.28,0,1,1,17.636,10.2,20.354,20.354,0,0,1-17.636-10.2m178.806,7.341a20.559,20.559,0,1,1,28.063-7.836c-.071.168-.168.248-.248.407a20.269,20.269,0,0,1-27.815,7.429M48.616,124.657a20.4,20.4,0,1,1,10.1,2.7,20.409,20.409,0,0,1-10.1-2.7m163.877-7.827a20.317,20.317,0,1,1,17.618,10.2,20.383,20.383,0,0,1-17.618-10.2M123.978,57.44a20.391,20.391,0,1,1,20.4,20.315,20.344,20.344,0,0,1-20.4-20.315" transform="translate(300.965 289.966)" fill="#fafafa"/>
    <path id="Path_5804" data-name="Path 5804" d="M48.069,68.548a20.391,20.391,0,1,1,20.475,20.4,20.4,20.4,0,0,1-20.475-20.4" transform="translate(377.07 377.728)" fill="#fafafa"/>
  </g>
</svg>
