<svg width="40" height="40" viewBox="0 0 40 40" fill="none" xmlns="http://www.w3.org/2000/svg">
<circle cx="20" cy="20" r="20" fill="#F4F4F4"/>
<path fill-rule="evenodd" clip-rule="evenodd" d="M15.6328 27H12.204V16.8792H15.6328V27ZM13.9185 15.4978H13.896C12.7456 15.4978 12 14.7203 12 13.7485C12 12.7766 12.7673 12 13.9407 12C15.1142 12 15.8358 12.7553 15.8584 13.7485C15.8584 14.7203 15.1145 15.4978 13.9185 15.4978ZM28 27H24.5703V21.5852C24.5703 20.2253 24.0749 19.2968 22.8335 19.2968C21.8854 19.2968 21.3221 19.9217 21.0739 20.5274C20.9838 20.7437 20.9601 21.0444 20.9601 21.3476V27H17.5296C17.5296 27 17.5755 17.8286 17.5296 16.8792H20.9601V18.3133C21.416 17.6251 22.2292 16.6417 24.0512 16.6417C26.3083 16.6417 28 18.0877 28 21.1963V27Z" fill="#0A0A0A"/>
</svg>
