<svg id="Component_3_3" data-name="Component 3 – 3" xmlns="http://www.w3.org/2000/svg" xmlns:xlink="http://www.w3.org/1999/xlink" width="25.176" height="25.176" viewBox="0 0 25.176 25.176">
  <defs>
    <clipPath id="clip-path">
      <rect id="Rectangle_2942" data-name="Rectangle 2942" width="25.176" height="25.176" fill="#00201f"/>
    </clipPath>
  </defs>
  <g id="Group_3264" data-name="Group 3264" clip-path="url(#clip-path)">
    <path id="Path_5752" data-name="Path 5752" d="M12.588,0A12.588,12.588,0,1,0,25.176,12.589,12.588,12.588,0,0,0,12.588,0M8.678,18.87H5.74V9.428H8.678ZM7.21,8.138a1.7,1.7,0,1,1,1.7-1.7,1.7,1.7,0,0,1-1.7,1.7M16.734,18.87V14.278c0-1.095-.019-2.5-1.525-2.5-1.527,0-1.76,1.193-1.76,2.425v4.67H10.519V9.428h2.813v1.291h.04a3.082,3.082,0,0,1,2.777-1.525c2.971,0,3.52,1.955,3.52,4.5V18.87Z" transform="translate(0 -0.001)" fill="#00201f"/>
  </g>
</svg>
