<svg width="72" height="72" viewBox="0 0 72 72" fill="none" xmlns="http://www.w3.org/2000/svg">
<rect width="72" height="72" rx="8" fill="#E7E7E7"/>
<g clip-path="url(#clip0_12386_7494)">
<mask id="mask0_12386_7494" style="mask-type:luminance" maskUnits="userSpaceOnUse" x="16" y="16" width="40" height="40">
<path d="M16 16H56V56H16V16Z" fill="white"/>
</mask>
<g mask="url(#mask0_12386_7494)">
<path fill-rule="evenodd" clip-rule="evenodd" d="M55.5107 24.821C55.8232 25.1335 55.9987 25.5574 55.9987 25.9993C55.9987 26.4413 55.8232 26.8651 55.5107 27.1777L39.6774 43.011C39.3648 43.3234 38.941 43.499 38.4991 43.499C38.0571 43.499 37.6333 43.3234 37.3207 43.011L30.1657 35.856L18.8441 47.1777C18.5297 47.4813 18.1087 47.6492 17.6717 47.6454C17.2347 47.6416 16.8167 47.4664 16.5077 47.1574C16.1987 46.8483 16.0234 46.4303 16.0196 45.9933C16.0158 45.5563 16.1838 45.1353 16.4874 44.821L28.9874 32.321C29.2999 32.0085 29.7238 31.833 30.1657 31.833C30.6077 31.833 31.0315 32.0085 31.3441 32.321L38.4991 39.476L53.154 24.821C53.4666 24.5085 53.8904 24.333 54.3324 24.333C54.7743 24.333 55.1982 24.5085 55.5107 24.821Z" fill="#00827E"/>
<path fill-rule="evenodd" clip-rule="evenodd" d="M42.6641 25.9997C42.6641 25.5576 42.8397 25.1337 43.1522 24.8212C43.4648 24.5086 43.8887 24.333 44.3307 24.333H54.3307C54.7728 24.333 55.1967 24.5086 55.5092 24.8212C55.8218 25.1337 55.9974 25.5576 55.9974 25.9997V35.9997C55.9974 36.4417 55.8218 36.8656 55.5092 37.1782C55.1967 37.4907 54.7728 37.6663 54.3307 37.6663C53.8887 37.6663 53.4648 37.4907 53.1522 37.1782C52.8397 36.8656 52.6641 36.4417 52.6641 35.9997V27.6663H44.3307C43.8887 27.6663 43.4648 27.4907 43.1522 27.1782C42.8397 26.8656 42.6641 26.4417 42.6641 25.9997Z" fill="#00827E"/>
</g>
</g>
<defs>
<clipPath id="clip0_12386_7494">
<rect width="40" height="40" fill="white" transform="translate(16 16)"/>
</clipPath>
</defs>
</svg>
