<svg id="Component_2_3" data-name="Component 2 – 3" xmlns="http://www.w3.org/2000/svg" xmlns:xlink="http://www.w3.org/1999/xlink" width="25.176" height="25.176" viewBox="0 0 25.176 25.176">
  <defs>
    <clipPath id="clip-path">
      <rect id="Rectangle_2943" data-name="Rectangle 2943" width="25.176" height="25.176" fill="#00201f"/>
    </clipPath>
  </defs>
  <g id="Group_3266" data-name="Group 3266" clip-path="url(#clip-path)">
    <path id="Path_5753" data-name="Path 5753" d="M12.588,0A12.588,12.588,0,1,0,25.176,12.588,12.588,12.588,0,0,0,12.588,0m6.158,9.429c.006.136.01.273.01.411A9.038,9.038,0,0,1,4.842,17.454a6.424,6.424,0,0,0,4.7-1.316,3.181,3.181,0,0,1-2.969-2.207,3.182,3.182,0,0,0,1.435-.054,3.179,3.179,0,0,1-2.549-3.116c0-.013,0-.027,0-.04a3.163,3.163,0,0,0,1.44.4,3.181,3.181,0,0,1-.983-4.243A9.022,9.022,0,0,0,12.472,10.2a3.18,3.18,0,0,1,5.415-2.9,6.357,6.357,0,0,0,2.018-.771,3.186,3.186,0,0,1-1.4,1.758,6.335,6.335,0,0,0,1.825-.5,6.427,6.427,0,0,1-1.587,1.644" fill="#00201f"/>
  </g>
</svg>
