<svg width="17" height="16" viewBox="0 0 17 16" fill="none" xmlns="http://www.w3.org/2000/svg">
<g id="arrow_circle_down">
<path id="Vector" d="M8.50065 2.66536C11.4407 2.66536 13.834 5.0587 13.834 7.9987C13.834 10.9387 11.4407 13.332 8.50065 13.332C5.56065 13.332 3.16732 10.9387 3.16732 7.9987C3.16732 5.0587 5.56065 2.66536 8.50065 2.66536ZM8.50065 1.33203C4.82065 1.33203 1.83398 4.3187 1.83398 7.9987C1.83398 11.6787 4.82065 14.6654 8.50065 14.6654C12.1807 14.6654 15.1673 11.6787 15.1673 7.9987C15.1673 4.3187 12.1807 1.33203 8.50065 1.33203ZM9.16732 7.9987V5.33203H7.83398V7.9987H5.83398L8.50065 10.6654L11.1673 7.9987H9.16732Z" fill="#00827E"/>
</g>
</svg>
