<svg width="82" height="41" viewBox="0 0 82 41" fill="none" xmlns="http://www.w3.org/2000/svg">
<path d="M0.750488 1.04469C0.750488 0.467723 1.21821 0 1.79518 0H55.2025C64.4339 0 71.9174 7.48356 71.9174 16.715V39.0236C71.9174 39.6006 71.4497 40.0683 70.8728 40.0683H1.79517C1.21821 40.0683 0.750488 39.6006 0.750488 39.0236V1.04469Z" fill="#00827E"></path>
<path d="M72.4997 4.50097C72.2728 4.40853 72.0227 4.40853 71.7958 4.50097L64.7793 7.3591C64.3881 7.51846 64.1289 7.92472 64.1289 8.37858V14.2549C64.1289 19.6562 67.4271 24.7002 71.9048 26.0638C72.0636 26.1122 72.2319 26.1122 72.3906 26.0638C76.8683 24.7002 80.1665 19.6562 80.1665 14.2549V8.37858C80.1665 7.92472 79.9074 7.51846 79.5161 7.3591L72.4997 4.50097ZM71.4396 18.7138C71.244 18.927 70.9262 18.9273 70.7302 18.7145L67.8913 15.6307C67.6956 15.4181 67.6956 15.0734 67.8913 14.8608L68.5958 14.0954C68.7916 13.8828 69.1089 13.8828 69.3046 14.0954L70.7208 15.6338C70.9165 15.8464 71.2339 15.8464 71.4296 15.6338L74.9708 11.7872C75.1665 11.5746 75.4838 11.5746 75.6796 11.7872L76.3847 12.5532C76.5802 12.7655 76.5805 13.1097 76.3854 13.3224L71.4396 18.7138Z" fill="#00827E"></path>
<path d="M59.3031 21.3427H57.1535C56.9128 21.3427 56.7132 21.2833 56.5546 21.1645C56.4014 21.0397 56.2948 20.8823 56.2346 20.6921L55.529 18.4284H50.9836L50.278 20.6921C50.2233 20.8585 50.1167 21.01 49.958 21.1467C49.7994 21.2774 49.6052 21.3427 49.3755 21.3427H47.2095L51.8369 8.35742H54.6757L59.3031 21.3427ZM51.6236 16.3786H54.889L53.7896 12.8225C53.7185 12.5967 53.6337 12.3323 53.5353 12.0293C53.4423 11.7204 53.3493 11.3876 53.2563 11.0311C53.1688 11.3936 53.0785 11.7293 52.9856 12.0382C52.8926 12.3472 52.8051 12.6146 52.723 12.8403L51.6236 16.3786Z" fill="white"></path>
<path d="M47.165 21.3427H45.0153C44.7747 21.3427 44.575 21.2833 44.4164 21.1645C44.2632 21.0397 44.1566 20.8823 44.0964 20.6921L43.3908 18.4284H38.8454L38.1398 20.6921C38.0851 20.8585 37.9785 21.01 37.8198 21.1467C37.6612 21.2774 37.467 21.3427 37.2373 21.3427H35.0713L39.6987 8.35742H42.5375L47.165 21.3427ZM39.4854 16.3786H42.7508L41.6514 12.8225C41.5803 12.5967 41.4955 12.3323 41.3971 12.0293C41.3041 11.7204 41.2111 11.3876 41.1181 11.0311C41.0306 11.3936 40.9404 11.7293 40.8474 12.0382C40.7544 12.3472 40.6669 12.6146 40.5848 12.8403L39.4854 16.3786Z" fill="white"></path>
<path d="M29.7024 17.0024V21.3427H26.9292V8.35742H31.1464C31.9887 8.35742 32.7107 8.46734 33.3124 8.68718C33.9196 8.90108 34.4173 9.19815 34.8057 9.57842C35.1995 9.95868 35.4894 10.4073 35.6754 10.9242C35.8613 11.4411 35.9543 11.9996 35.9543 12.5997C35.9543 13.2473 35.8586 13.8415 35.6672 14.3822C35.4757 14.9229 35.1831 15.3863 34.7893 15.7725C34.3954 16.1587 33.895 16.4617 33.2878 16.6816C32.6861 16.8955 31.9723 17.0024 31.1464 17.0024H29.7024ZM29.7024 14.7298H31.1464C31.8684 14.7298 32.388 14.5426 32.7053 14.1683C33.0225 13.794 33.1811 13.2711 33.1811 12.5997C33.1811 12.3026 33.1401 12.0323 33.0581 11.7887C32.976 11.5451 32.8502 11.3371 32.6807 11.1648C32.5166 10.9866 32.306 10.8499 32.0489 10.7548C31.7973 10.6598 31.4965 10.6122 31.1464 10.6122H29.7024V14.7298Z" fill="white"></path>
<path d="M24.667 21.3427H21.8774V8.35742H24.667V21.3427Z" fill="white"></path>
<path d="M19.6228 21.3427H16.8333V15.8527H11.9761V21.3427H9.18652V8.35742H11.9761V13.7851H16.8333V8.35742H19.6228V21.3427Z" fill="white"></path>
<path d="M59.8051 25.2779H58.0459V30.8196H56.5956V25.2779H54.8364V24.0288H59.8051V25.2779Z" fill="white"></path>
<path d="M54.0784 24.0288V30.8196H53.3232C53.2117 30.8196 53.1173 30.801 53.04 30.7637C52.9657 30.7233 52.8913 30.6549 52.8169 30.5586L49.8692 26.5084C49.8806 26.6295 49.8878 26.7476 49.8907 26.8626C49.8964 26.9744 49.8992 27.0801 49.8992 27.1795V30.8196H48.6206V24.0288H49.3844C49.4473 24.0288 49.5002 24.0319 49.5431 24.0381C49.586 24.0443 49.6246 24.0568 49.659 24.0754C49.6933 24.091 49.7262 24.1143 49.7576 24.1453C49.7891 24.1764 49.8249 24.2183 49.8649 24.2712L52.8384 28.3494C52.8241 28.2189 52.8141 28.093 52.8083 27.9719C52.8026 27.8476 52.7998 27.7311 52.7998 27.6223V24.0288H54.0784Z" fill="white"></path>
<path d="M45.8012 28.2235L45.2219 26.3639C45.179 26.2458 45.1332 26.1075 45.0846 25.9491C45.036 25.7875 44.9874 25.6135 44.9387 25.4271C44.8958 25.6166 44.8501 25.7922 44.8014 25.9537C44.7528 26.1153 44.707 26.2551 44.6641 26.3732L44.0892 28.2235H45.8012ZM48.1053 30.8196H46.9811C46.8553 30.8196 46.7537 30.7886 46.6765 30.7264C46.5992 30.6612 46.5406 30.5788 46.5006 30.4794L46.1315 29.2955H43.7545L43.3855 30.4794C43.354 30.5664 43.2968 30.6456 43.2139 30.7171C43.1338 30.7854 43.0337 30.8196 42.9135 30.8196H41.7808L44.2007 24.0288H45.6853L48.1053 30.8196Z" fill="white"></path>
<path d="M41.2694 30.8196H39.8105V24.0288H41.2694V30.8196Z" fill="white"></path>
<path d="M39.047 29.5612V30.8196H35.2798V24.0288H36.73V29.5612H39.047Z" fill="white"></path>
<path d="M32.0087 27.3613C32.3862 27.3613 32.658 27.2634 32.8239 27.0677C32.9898 26.8719 33.0727 26.5985 33.0727 26.2474C33.0727 26.092 33.0513 25.9506 33.0084 25.8232C32.9655 25.6958 32.8997 25.5871 32.811 25.497C32.7252 25.4038 32.6151 25.3323 32.4806 25.2826C32.349 25.2329 32.1917 25.208 32.0087 25.208H31.2535V27.3613H32.0087ZM32.0087 24.0288C32.4492 24.0288 32.8267 24.0863 33.1414 24.2013C33.4589 24.3131 33.7192 24.4685 33.9223 24.6673C34.1283 24.8662 34.2799 25.1008 34.3771 25.3711C34.4744 25.6415 34.523 25.9335 34.523 26.2474C34.523 26.586 34.473 26.8968 34.3728 27.1795C34.2727 27.4623 34.1197 27.7046 33.9137 27.9066C33.7078 28.1086 33.446 28.267 33.1285 28.382C32.8139 28.4939 32.4406 28.5498 32.0087 28.5498H31.2535V30.8196H29.8032V24.0288H32.0087Z" fill="white"></path>
<path d="M28.5726 24.0288V30.8196H27.294V26.9139C27.294 26.8237 27.2954 26.7259 27.2983 26.6202C27.304 26.5146 27.3126 26.4074 27.324 26.2986L25.6635 29.7896C25.612 29.8983 25.542 29.9807 25.4533 30.0366C25.3675 30.0925 25.2688 30.1205 25.1572 30.1205H24.9598C24.8483 30.1205 24.7482 30.0925 24.6595 30.0366C24.5737 29.9807 24.505 29.8983 24.4535 29.7896L22.793 26.2893C22.8016 26.4012 22.8088 26.5115 22.8145 26.6202C22.8202 26.7259 22.8231 26.8237 22.8231 26.9139V30.8196H21.5444V24.0288H22.6514C22.7144 24.0288 22.7687 24.0304 22.8145 24.0335C22.8631 24.0366 22.906 24.0459 22.9432 24.0614C22.9804 24.077 23.0133 24.1018 23.0419 24.136C23.0734 24.1671 23.1034 24.2121 23.132 24.2712L24.741 27.7155C24.7982 27.8336 24.8526 27.9563 24.9041 28.0837C24.9584 28.2111 25.0099 28.3416 25.0585 28.4752C25.1072 28.3385 25.1572 28.2049 25.2087 28.0744C25.2631 27.9439 25.3203 27.8196 25.3803 27.7015L26.9851 24.2712C27.0137 24.2121 27.0423 24.1671 27.0709 24.136C27.1023 24.1018 27.1367 24.077 27.1739 24.0614C27.211 24.0459 27.2525 24.0366 27.2983 24.0335C27.3469 24.0304 27.4027 24.0288 27.4656 24.0288H28.5726Z" fill="white"></path>
<path d="M20.6695 27.4222C20.6695 27.9132 20.5908 28.3699 20.4335 28.7925C20.279 29.2151 20.0602 29.5833 19.777 29.8971C19.4938 30.2079 19.152 30.4518 18.7515 30.6289C18.3539 30.806 17.912 30.8946 17.4257 30.8946C16.9394 30.8946 16.496 30.806 16.0956 30.6289C15.6951 30.4518 15.3519 30.2079 15.0658 29.8971C14.7826 29.5833 14.5624 29.2151 14.405 28.7925C14.2506 28.3699 14.1733 27.9132 14.1733 27.4222C14.1733 26.9313 14.2506 26.4745 14.405 26.052C14.5624 25.6294 14.7826 25.2627 15.0658 24.952C15.3519 24.6413 15.6951 24.3974 16.0956 24.2203C16.496 24.0431 16.9394 23.9546 17.4257 23.9546C17.912 23.9546 18.3539 24.0447 18.7515 24.2249C19.152 24.402 19.4938 24.6459 19.777 24.9567C20.0602 25.2674 20.279 25.634 20.4335 26.0566C20.5908 26.4792 20.6695 26.9344 20.6695 27.4222ZM19.1849 27.4222C19.1849 27.0867 19.1448 26.7853 19.0648 26.518C18.9847 26.2477 18.8688 26.0193 18.7172 25.8329C18.5685 25.6465 18.3854 25.5035 18.168 25.4041C17.9506 25.3047 17.7032 25.255 17.4257 25.255C17.1454 25.255 16.8951 25.3047 16.6748 25.4041C16.4574 25.5035 16.2729 25.6465 16.1213 25.8329C15.9726 26.0193 15.8582 26.2477 15.7781 26.518C15.698 26.7853 15.6579 27.0867 15.6579 27.4222C15.6579 27.7609 15.698 28.0654 15.7781 28.3358C15.8582 28.603 15.9726 28.8298 16.1213 29.0162C16.2729 29.2027 16.4574 29.3456 16.6748 29.445C16.8951 29.5414 17.1454 29.5895 17.4257 29.5895C17.7032 29.5895 17.9506 29.5414 18.168 29.445C18.3854 29.3456 18.5685 29.2027 18.7172 29.0162C18.8688 28.8298 18.9847 28.603 19.0648 28.3358C19.1448 28.0654 19.1849 27.7609 19.1849 27.4222Z" fill="white"></path>
<path d="M13.2451 29.0629C13.2794 29.0629 13.3138 29.0706 13.3481 29.0862C13.3824 29.0986 13.4153 29.1219 13.4468 29.1561L14.0217 29.8132C13.77 30.1706 13.4539 30.4409 13.0735 30.6242C12.6959 30.8044 12.2482 30.8946 11.7305 30.8946C11.2557 30.8946 10.8294 30.8076 10.4519 30.6335C10.0771 30.4564 9.75819 30.2141 9.49503 29.9065C9.23472 29.5957 9.03449 29.2291 8.89433 28.8065C8.75416 28.3808 8.68408 27.9194 8.68408 27.4222C8.68408 26.9158 8.75988 26.4512 8.91149 26.0287C9.0631 25.603 9.2762 25.2363 9.55081 24.9287C9.82541 24.6211 10.1544 24.3818 10.5377 24.2109C10.921 24.04 11.3429 23.9546 11.8034 23.9546C12.038 23.9546 12.2582 23.9779 12.4642 24.0245C12.673 24.068 12.8675 24.1301 13.0477 24.2109C13.228 24.2886 13.3939 24.3834 13.5455 24.4952C13.6971 24.6071 13.8315 24.7283 13.9488 24.8588L13.4597 25.5719C13.4282 25.6154 13.391 25.6558 13.3481 25.6931C13.3052 25.7273 13.2451 25.7443 13.1679 25.7443C13.1164 25.7443 13.0678 25.7319 13.022 25.7071C12.9762 25.6822 12.9276 25.6527 12.8761 25.6185C12.8246 25.5812 12.7674 25.5424 12.7045 25.502C12.6444 25.4585 12.5715 25.4196 12.4857 25.3855C12.4027 25.3482 12.304 25.3171 12.1896 25.2922C12.078 25.2674 11.9465 25.255 11.7949 25.255C11.5546 25.255 11.3343 25.3031 11.1341 25.3994C10.9367 25.4958 10.7651 25.6371 10.6192 25.8236C10.4762 26.0069 10.3646 26.2337 10.2845 26.5041C10.2073 26.7713 10.1687 27.0773 10.1687 27.4222C10.1687 27.7702 10.2116 28.0794 10.2974 28.3497C10.3861 28.6201 10.5048 28.8485 10.6535 29.0349C10.8051 29.2182 10.981 29.358 11.1813 29.4544C11.3815 29.5507 11.596 29.5988 11.8249 29.5988C11.9565 29.5988 12.0766 29.5926 12.1853 29.5802C12.294 29.5647 12.3956 29.5414 12.4899 29.5103C12.5843 29.4761 12.673 29.4326 12.756 29.3798C12.8389 29.3239 12.9233 29.2539 13.0091 29.1701C13.0435 29.139 13.0806 29.1141 13.1207 29.0955C13.1607 29.0737 13.2022 29.0629 13.2451 29.0629Z" fill="white"></path>
<path fill-rule="evenodd" clip-rule="evenodd" d="M64.251 5.82881L71.2675 2.97068C71.8348 2.73959 72.4599 2.73959 73.0272 2.97068L80.0437 5.82881C81.0217 6.22721 81.6697 7.24286 81.6697 8.37752V14.2538C81.6697 20.3071 77.9913 26.0533 72.7961 27.6353C72.3719 27.7645 71.9228 27.7645 71.4986 27.6353C66.3034 26.0533 62.625 20.3071 62.625 14.2538V8.37752C62.625 7.24286 63.273 6.22721 64.251 5.82881ZM71.7954 4.49991C72.0223 4.40747 72.2724 4.40747 72.4993 4.49991L79.5157 7.35804C79.907 7.5174 80.1661 7.92366 80.1661 8.37752V14.2538C80.1661 19.6551 76.8679 24.6992 72.3902 26.0627C72.2315 26.1111 72.0632 26.1111 71.9044 26.0627C67.4267 24.6992 64.1285 19.6551 64.1285 14.2538V8.37752C64.1285 7.92366 64.3877 7.5174 64.7789 7.35804L71.7954 4.49991ZM70.7298 18.7134C70.9258 18.9263 71.2436 18.926 71.4392 18.7127L76.385 13.3213C76.5801 13.1086 76.5798 12.7644 76.3843 12.5521L75.6792 11.7861C75.4835 11.5735 75.1661 11.5735 74.9704 11.7861L71.4292 15.6328C71.2335 15.8454 70.9162 15.8454 70.7204 15.6328L69.3042 14.0944C69.1085 13.8818 68.7912 13.8818 68.5955 14.0944L67.8909 14.8597C67.6952 15.0723 67.6952 15.417 67.8909 15.6296L70.7298 18.7134Z" fill="white"></path>
</svg>