<svg xmlns="http://www.w3.org/2000/svg" width="68" height="7" viewBox="0 0 68 7" fill="none">
  <path d="M66.8433 4.89865C66.8433 4.83635 66.854 4.77765 66.8756 4.72254C66.8996 4.66743 66.9307 4.61951 66.9691 4.57878C67.0098 4.53805 67.0577 4.5057 67.1128 4.48174C67.1679 4.45778 67.2266 4.4458 67.2889 4.4458C67.3512 4.4458 67.4099 4.45778 67.465 4.48174C67.5201 4.5057 67.5681 4.53805 67.6088 4.57878C67.6495 4.61951 67.6807 4.66743 67.7022 4.72254C67.7262 4.77765 67.7382 4.83635 67.7382 4.89865C67.7382 4.96334 67.7262 5.02324 67.7022 5.07835C67.6807 5.13106 67.6495 5.17778 67.6088 5.21851C67.5681 5.25925 67.5201 5.2904 67.465 5.31196C67.4099 5.33592 67.3512 5.3479 67.2889 5.3479C67.2266 5.3479 67.1679 5.33592 67.1128 5.31196C67.0577 5.2904 67.0098 5.25925 66.9691 5.21851C66.9307 5.17778 66.8996 5.13106 66.8756 5.07835C66.854 5.02324 66.8433 4.96334 66.8433 4.89865Z" fill="#E0097E"/>
  <path d="M66.169 2.30017C66.1498 2.32653 66.1307 2.3469 66.1115 2.36127C66.0923 2.37565 66.0648 2.38284 66.0288 2.38284C65.9929 2.38284 65.9533 2.36846 65.9102 2.33971C65.8695 2.30856 65.8168 2.27502 65.7521 2.23908C65.6874 2.20313 65.6083 2.17079 65.5149 2.14204C65.4238 2.11089 65.3112 2.09531 65.177 2.09531C64.9997 2.09531 64.8428 2.12766 64.7062 2.19235C64.5697 2.25465 64.4546 2.3457 64.3612 2.4655C64.2702 2.5853 64.2007 2.73026 64.1528 2.90037C64.1072 3.07049 64.0845 3.26097 64.0845 3.47182C64.0845 3.69225 64.1096 3.88873 64.1599 4.06124C64.2103 4.23136 64.2809 4.37512 64.372 4.49252C64.463 4.60753 64.5733 4.69618 64.7026 4.75848C64.8344 4.81838 64.9818 4.84833 65.1447 4.84833C65.3004 4.84833 65.4286 4.83036 65.5293 4.79442C65.6299 4.75608 65.7137 4.71415 65.7808 4.66863C65.8479 4.6231 65.903 4.58237 65.9462 4.54643C65.9893 4.50809 66.0324 4.48893 66.0755 4.48893C66.1307 4.48893 66.1714 4.50929 66.1977 4.55002L66.3774 4.78364C66.2193 4.97771 66.0216 5.12027 65.7844 5.21132C65.5472 5.29998 65.2968 5.3443 65.0333 5.3443C64.8057 5.3443 64.5936 5.30237 64.3971 5.21851C64.2031 5.13465 64.0341 5.01365 63.8904 4.85552C63.7466 4.69498 63.6328 4.49851 63.549 4.2661C63.4675 4.03369 63.4268 3.76893 63.4268 3.47182C63.4268 3.20107 63.4639 2.95069 63.5382 2.72067C63.6148 2.49066 63.7251 2.29299 63.8688 2.12766C64.015 1.95994 64.1947 1.82936 64.4079 1.73591C64.6212 1.64247 64.8656 1.59575 65.1411 1.59575C65.3951 1.59575 65.6203 1.63768 65.8168 1.72154C66.0133 1.803 66.187 1.91921 66.3379 2.07016L66.169 2.30017Z" fill="#E0097E"/>
  <path d="M59.6807 5.29399V1.65325H60.0616C60.1527 1.65325 60.2102 1.69758 60.2341 1.78623L60.2845 2.18157C60.4426 2.00666 60.6187 1.8653 60.8128 1.75748C61.0093 1.64966 61.2357 1.59575 61.492 1.59575C61.6909 1.59575 61.8658 1.62929 62.0168 1.69638C62.1701 1.76107 62.2971 1.85452 62.3977 1.97671C62.5008 2.09651 62.5786 2.24147 62.6314 2.41159C62.6841 2.5817 62.7104 2.76979 62.7104 2.97585V5.29399H62.0707V2.97585C62.0707 2.70031 62.0072 2.48706 61.8802 2.33611C61.7556 2.18277 61.5639 2.1061 61.3052 2.1061C61.1159 2.1061 60.9386 2.15162 60.7732 2.24267C60.6103 2.33372 60.4594 2.45711 60.3204 2.61285V5.29399H59.6807Z" fill="#E0097E"/>
  <path d="M58.393 5.29399H57.6958V0.143768H58.393V5.29399Z" fill="#E0097E"/>
  <path d="M54.3442 4.85193C54.3442 4.79682 54.3538 4.7453 54.373 4.69738C54.3946 4.64707 54.4233 4.60394 54.4592 4.568C54.4976 4.52966 54.5431 4.49971 54.5958 4.47815C54.6485 4.45658 54.706 4.4458 54.7683 4.4458C54.8402 4.4458 54.9037 4.45898 54.9588 4.48534C55.0163 4.51169 55.063 4.54883 55.099 4.59675C55.1373 4.64228 55.1661 4.69619 55.1852 4.75848C55.2044 4.81838 55.214 4.88427 55.214 4.95615C55.214 5.06397 55.1984 5.17658 55.1673 5.29399C55.1361 5.409 55.0918 5.52281 55.0343 5.63542C54.9768 5.75043 54.9049 5.86184 54.8186 5.96966C54.7348 6.07748 54.6389 6.17692 54.5311 6.26797L54.4233 6.16374C54.3922 6.13499 54.3766 6.10144 54.3766 6.06311C54.3766 6.03196 54.3934 5.99961 54.4269 5.96607C54.4509 5.93971 54.4808 5.90377 54.5168 5.85825C54.5551 5.81512 54.5934 5.7648 54.6318 5.7073C54.6701 5.6498 54.7048 5.5863 54.736 5.51682C54.7695 5.44733 54.7935 5.37306 54.8079 5.29399H54.7611C54.6988 5.29399 54.6425 5.28321 54.5922 5.26164C54.5419 5.24008 54.4976 5.21013 54.4592 5.17179C54.4233 5.13106 54.3946 5.08434 54.373 5.03163C54.3538 4.97652 54.3442 4.91662 54.3442 4.85193Z" fill="#E0097E"/>
  <path d="M51.4297 4.70816H53.658V5.29399H50.7324V0.143768H51.4297V4.70816Z" fill="#E0097E"/>
  <path d="M49.3437 5.29399H48.6465V0.143768H49.3437V5.29399Z" fill="#E0097E"/>
  <path d="M47.2495 5.29399H46.5487V2.95069H43.7741V5.29399H43.0732V0.143768H43.7741V2.44034H46.5487V0.143768H47.2495V5.29399Z" fill="#E0097E"/>
  <path d="M39.4339 3.3676V5.29399H38.7402V0.143768H40.2605C40.5864 0.143768 40.8691 0.182105 41.1087 0.258777C41.3507 0.333053 41.5508 0.439675 41.7089 0.578644C41.867 0.717612 41.9844 0.885333 42.0611 1.08181C42.1402 1.27828 42.1797 1.49751 42.1797 1.73951C42.1797 1.97911 42.1378 2.19834 42.0539 2.39721C41.9701 2.59608 41.8467 2.7674 41.6837 2.91116C41.5232 3.05492 41.3231 3.16753 41.0835 3.24899C40.8439 3.32806 40.5696 3.3676 40.2605 3.3676H39.4339ZM39.4339 2.81412H40.2605C40.4594 2.81412 40.6343 2.78776 40.7852 2.73505C40.9386 2.68234 41.0668 2.60926 41.1698 2.51582C41.2728 2.41998 41.3507 2.30617 41.4034 2.17439C41.4561 2.0426 41.4825 1.89765 41.4825 1.73951C41.4825 1.41126 41.3806 1.15488 41.177 0.970391C40.9757 0.785898 40.6702 0.693652 40.2605 0.693652H39.4339V2.81412Z" fill="#E0097E"/>
  <path d="M34.5452 6.3686C34.5237 6.41652 34.4961 6.45485 34.4626 6.48361C34.4314 6.51236 34.3823 6.52673 34.3152 6.52673H33.8408L34.5057 5.08194L33.0034 1.65325H33.5569C33.612 1.65325 33.6551 1.66763 33.6863 1.69638C33.7174 1.72274 33.7402 1.75269 33.7546 1.78623L34.7285 4.07921C34.7501 4.13192 34.7681 4.18464 34.7825 4.23735C34.7992 4.29006 34.8136 4.34397 34.8256 4.39908C34.8424 4.34397 34.8591 4.29006 34.8759 4.23735C34.8927 4.18464 34.9118 4.13073 34.9334 4.07562L35.8786 1.78623C35.893 1.7479 35.917 1.71675 35.9505 1.69279C35.9864 1.66643 36.0248 1.65325 36.0655 1.65325H36.5759L34.5452 6.3686Z" fill="#E0097E"/>
  <path d="M29.5649 5.29398V4.76837e-06H30.2083V2.17798C30.3592 2.00307 30.5317 1.8629 30.7258 1.75748C30.9223 1.64966 31.1463 1.59575 31.3979 1.59575C31.6087 1.59575 31.7992 1.63528 31.9693 1.71435C32.1395 1.79342 32.2844 1.91202 32.4042 2.07016C32.524 2.2259 32.6163 2.41997 32.6809 2.65239C32.7456 2.8824 32.778 3.14836 32.778 3.45026C32.778 3.71861 32.742 3.96899 32.6702 4.2014C32.5983 4.43142 32.4941 4.63149 32.3575 4.8016C32.2233 4.96933 32.058 5.1023 31.8615 5.20054C31.6674 5.29638 31.4482 5.3443 31.2038 5.3443C30.969 5.3443 30.7689 5.29878 30.6036 5.20773C30.4407 5.11668 30.2981 4.98969 30.1759 4.82676L30.1436 5.15741C30.1244 5.24846 30.0693 5.29398 29.9783 5.29398H29.5649ZM31.1894 2.1061C30.981 2.1061 30.7977 2.15402 30.6396 2.24986C30.4838 2.3457 30.34 2.48107 30.2083 2.65598V4.41705C30.3233 4.57518 30.4503 4.6866 30.5892 4.75129C30.7306 4.81598 30.8875 4.84833 31.06 4.84833C31.4003 4.84833 31.6614 4.72733 31.8435 4.48533C32.0256 4.24333 32.1167 3.89831 32.1167 3.45026C32.1167 3.21305 32.0951 3.00939 32.052 2.83927C32.0113 2.66916 31.9514 2.53019 31.8723 2.42237C31.7932 2.31215 31.6962 2.23189 31.5812 2.18157C31.4662 2.13125 31.3356 2.1061 31.1894 2.1061Z" fill="#E0097E"/>
  <path d="M26.6791 5.29398C26.588 5.29398 26.5305 5.24966 26.5066 5.16101L26.4491 4.71894C26.2933 4.90823 26.1148 5.06037 25.9135 5.17538C25.7147 5.28799 25.4859 5.3443 25.2271 5.3443C25.0186 5.3443 24.8294 5.30477 24.6592 5.2257C24.4891 5.14423 24.3442 5.02563 24.2244 4.86989C24.1046 4.71415 24.0123 4.52007 23.9476 4.28766C23.8829 4.05525 23.8506 3.78809 23.8506 3.4862C23.8506 3.21784 23.8865 2.96866 23.9584 2.73864C24.0303 2.50623 24.1333 2.30496 24.2675 2.13485C24.4041 1.96473 24.5694 1.83175 24.7635 1.73591C24.9575 1.63768 25.178 1.58856 25.4248 1.58856C25.6476 1.58856 25.8381 1.62689 25.9962 1.70357C26.1543 1.77784 26.2957 1.88327 26.4203 2.01984V4.76837e-06H27.06V5.29398H26.6791ZM25.4391 4.82676C25.6476 4.82676 25.8297 4.77884 25.9854 4.683C26.1436 4.58716 26.2885 4.45179 26.4203 4.27688V2.51581C26.3029 2.35768 26.1735 2.24746 26.0322 2.18516C25.8932 2.12047 25.7386 2.08813 25.5685 2.08813C25.2283 2.08813 24.9671 2.20912 24.785 2.45112C24.6029 2.69312 24.5119 3.03814 24.5119 3.4862C24.5119 3.7234 24.5323 3.92706 24.573 4.09718C24.6137 4.2649 24.6736 4.40387 24.7527 4.51408C24.8318 4.6219 24.9288 4.70097 25.0438 4.75129C25.1588 4.8016 25.2906 4.82676 25.4391 4.82676Z" fill="#E0097E"/>
  <path d="M21.7776 1.59575C21.9956 1.59575 22.1969 1.63289 22.3814 1.70716C22.5659 1.77904 22.7252 1.88447 22.8594 2.02343C22.9936 2.16001 23.0978 2.33012 23.1721 2.53378C23.2488 2.73505 23.2871 2.96507 23.2871 3.22383C23.2871 3.32447 23.2763 3.39156 23.2547 3.4251C23.2332 3.45864 23.1924 3.47542 23.1325 3.47542H20.7102C20.715 3.70543 20.7461 3.9055 20.8036 4.07562C20.8611 4.24573 20.9402 4.38829 21.0408 4.5033C21.1415 4.61592 21.2613 4.70097 21.4002 4.75848C21.5392 4.81359 21.6949 4.84114 21.8675 4.84114C22.028 4.84114 22.1658 4.82317 22.2808 4.78723C22.3982 4.74889 22.4988 4.70816 22.5827 4.66503C22.6665 4.62191 22.736 4.58237 22.7911 4.54643C22.8486 4.50809 22.8977 4.48893 22.9385 4.48893C22.9912 4.48893 23.0319 4.50929 23.0607 4.55002L23.2404 4.78364C23.1613 4.87948 23.0667 4.96334 22.9564 5.03522C22.8462 5.1047 22.7276 5.1622 22.6006 5.20773C22.476 5.25325 22.3467 5.2868 22.2125 5.30836C22.0783 5.33232 21.9453 5.3443 21.8135 5.3443C21.562 5.3443 21.3296 5.30237 21.1163 5.21851C20.9055 5.13225 20.7222 5.00766 20.5664 4.84473C20.4131 4.67941 20.2933 4.47575 20.207 4.23375C20.1208 3.99175 20.0776 3.71382 20.0776 3.39994C20.0776 3.14596 20.116 2.90876 20.1926 2.68833C20.2717 2.46789 20.3843 2.27741 20.5305 2.11688C20.6766 1.95395 20.8551 1.82696 21.066 1.73591C21.2768 1.64247 21.514 1.59575 21.7776 1.59575ZM21.792 2.06656C21.4829 2.06656 21.2397 2.15641 21.0624 2.33611C20.8851 2.51342 20.7749 2.76021 20.7317 3.07648H22.712C22.712 2.92793 22.6917 2.79255 22.651 2.67036C22.6102 2.54576 22.5503 2.43914 22.4712 2.35049C22.3922 2.25944 22.2951 2.18996 22.1801 2.14204C22.0675 2.09172 21.9381 2.06656 21.792 2.06656Z" fill="#E0097E"/>
  <path d="M17.4265 5.29399V1.65326H17.7931C17.8626 1.65326 17.9105 1.66643 17.9369 1.69279C17.9632 1.71915 17.9812 1.76467 17.9908 1.82936L18.0339 2.39722C18.1585 2.14324 18.3118 1.94557 18.4939 1.8042C18.6784 1.66044 18.8941 1.58856 19.1409 1.58856C19.2415 1.58856 19.3325 1.60054 19.414 1.6245C19.4955 1.64607 19.5709 1.67722 19.6404 1.71795L19.5578 2.19595C19.541 2.25585 19.5039 2.2858 19.4463 2.2858C19.4128 2.2858 19.3613 2.27502 19.2918 2.25346C19.2223 2.22949 19.1253 2.21751 19.0007 2.21751C18.7779 2.21751 18.591 2.28221 18.44 2.41159C18.2915 2.54098 18.1669 2.72906 18.0662 2.97585V5.29399H17.4265Z" fill="#E0097E"/>
  <path d="M15.0874 1.59575C15.3055 1.59575 15.5067 1.63289 15.6912 1.70716C15.8757 1.77904 16.035 1.88447 16.1692 2.02343C16.3034 2.16001 16.4076 2.33012 16.4819 2.53378C16.5586 2.73505 16.5969 2.96507 16.5969 3.22383C16.5969 3.32447 16.5861 3.39156 16.5646 3.4251C16.543 3.45864 16.5023 3.47542 16.4424 3.47542H14.02C14.0248 3.70543 14.0559 3.9055 14.1134 4.07562C14.1709 4.24573 14.25 4.38829 14.3506 4.5033C14.4513 4.61592 14.5711 4.70097 14.71 4.75848C14.849 4.81359 15.0048 4.84114 15.1773 4.84114C15.3378 4.84114 15.4756 4.82317 15.5906 4.78723C15.708 4.74889 15.8086 4.70816 15.8925 4.66503C15.9763 4.62191 16.0458 4.58237 16.1009 4.54643C16.1584 4.50809 16.2076 4.48893 16.2483 4.48893C16.301 4.48893 16.3417 4.50929 16.3705 4.55002L16.5502 4.78364C16.4711 4.87948 16.3765 4.96334 16.2663 5.03522C16.156 5.1047 16.0374 5.1622 15.9104 5.20773C15.7859 5.25325 15.6565 5.2868 15.5223 5.30836C15.3881 5.33232 15.2551 5.3443 15.1234 5.3443C14.8718 5.3443 14.6394 5.30237 14.4261 5.21851C14.2153 5.13225 14.032 5.00766 13.8762 4.84473C13.7229 4.67941 13.6031 4.47575 13.5168 4.23375C13.4306 3.99175 13.3875 3.71382 13.3875 3.39994C13.3875 3.14596 13.4258 2.90876 13.5025 2.68833C13.5815 2.46789 13.6941 2.27741 13.8403 2.11688C13.9865 1.95395 14.165 1.82696 14.3758 1.73591C14.5867 1.64247 14.8239 1.59575 15.0874 1.59575ZM15.1018 2.06656C14.7927 2.06656 14.5495 2.15641 14.3722 2.33611C14.1949 2.51342 14.0847 2.76021 14.0416 3.07648H16.0219C16.0219 2.92793 16.0015 2.79255 15.9608 2.67036C15.92 2.54576 15.8601 2.43914 15.7811 2.35049C15.702 2.25944 15.605 2.18996 15.4899 2.14204C15.3773 2.09172 15.248 2.06656 15.1018 2.06656Z" fill="#E0097E"/>
  <path d="M7.65771 1.65325H8.16088C8.21359 1.65325 8.25672 1.66643 8.29026 1.69279C8.32381 1.71914 8.34657 1.75029 8.35855 1.78623L9.05579 4.12953C9.07495 4.21578 9.09292 4.29964 9.1097 4.38111C9.12647 4.46017 9.14084 4.54044 9.15282 4.6219C9.17199 4.54044 9.19356 4.46017 9.21752 4.38111C9.24148 4.29964 9.26663 4.21578 9.29299 4.12953L10.0621 1.77185C10.0741 1.73591 10.0945 1.70596 10.1232 1.682C10.1544 1.65804 10.1927 1.64606 10.2382 1.64606H10.515C10.5629 1.64606 10.6024 1.65804 10.6336 1.682C10.6647 1.70596 10.6863 1.73591 10.6982 1.77185L11.4494 4.12953C11.4758 4.21339 11.4985 4.29605 11.5177 4.37751C11.5392 4.45898 11.5596 4.53924 11.5788 4.61831C11.5908 4.53924 11.6063 4.45658 11.6255 4.37032C11.6447 4.28407 11.665 4.2038 11.6866 4.12953L12.3982 1.78623C12.4102 1.74789 12.433 1.71675 12.4665 1.69279C12.5 1.66643 12.5396 1.65325 12.5851 1.65325H13.0667L11.8879 5.29399H11.3811C11.3188 5.29399 11.2757 5.25325 11.2517 5.17179L10.4467 2.7027C10.4275 2.64759 10.4119 2.59249 10.3999 2.53738C10.388 2.47987 10.376 2.42357 10.364 2.36846C10.352 2.42357 10.34 2.47987 10.3281 2.53738C10.3161 2.59488 10.3005 2.65119 10.2813 2.7063L9.4655 5.17179C9.43915 5.25325 9.39003 5.29399 9.31815 5.29399H8.83655L7.65771 1.65325Z" fill="#E0097E"/>
  <path d="M5.60083 1.59575C5.86679 1.59575 6.10639 1.64007 6.31963 1.72873C6.53527 1.81738 6.71737 1.94317 6.86592 2.1061C7.01687 2.26903 7.13188 2.4667 7.21095 2.69911C7.29241 2.92913 7.33314 3.1867 7.33314 3.47182C7.33314 3.75934 7.29241 4.01811 7.21095 4.24813C7.13188 4.47814 7.01687 4.67462 6.86592 4.83755C6.71737 5.00047 6.53527 5.12626 6.31963 5.21492C6.10639 5.30117 5.86679 5.3443 5.60083 5.3443C5.33487 5.3443 5.09407 5.30117 4.87843 5.21492C4.66519 5.12626 4.48309 5.00047 4.33214 4.83755C4.1812 4.67462 4.06499 4.47814 3.98352 4.24813C3.90206 4.01811 3.86133 3.75934 3.86133 3.47182C3.86133 3.1867 3.90206 2.92913 3.98352 2.69911C4.06499 2.4667 4.1812 2.26903 4.33214 2.1061C4.48309 1.94317 4.66519 1.81738 4.87843 1.72873C5.09407 1.64007 5.33487 1.59575 5.60083 1.59575ZM5.60083 4.84473C5.96023 4.84473 6.22858 4.72493 6.40589 4.48533C6.58319 4.24334 6.67184 3.9067 6.67184 3.47542C6.67184 3.04174 6.58319 2.7039 6.40589 2.4619C6.22858 2.21991 5.96023 2.09891 5.60083 2.09891C5.41873 2.09891 5.2606 2.13006 5.12642 2.19235C4.99224 2.25465 4.87963 2.3445 4.78858 2.4619C4.69993 2.57931 4.63284 2.72427 4.58732 2.89678C4.54419 3.0669 4.52263 3.25977 4.52263 3.47542C4.52263 3.69106 4.54419 3.88393 4.58732 4.05405C4.63284 4.22417 4.69993 4.36793 4.78858 4.48533C4.87963 4.60034 4.99224 4.68899 5.12642 4.75129C5.2606 4.81359 5.41873 4.84473 5.60083 4.84473Z" fill="#E0097E"/>
  <path d="M0.693645 3.3676V5.29399H0V0.143768H1.52027C1.84612 0.143768 2.12885 0.182105 2.36845 0.258777C2.61045 0.333053 2.81052 0.439675 2.96865 0.578644C3.12679 0.717612 3.24419 0.885333 3.32087 1.08181C3.39994 1.27828 3.43947 1.49751 3.43947 1.73951C3.43947 1.97911 3.39754 2.19834 3.31368 2.39721C3.22982 2.59608 3.10642 2.7674 2.9435 2.91116C2.78296 3.05492 2.5829 3.16753 2.3433 3.24899C2.10369 3.32806 1.82935 3.3676 1.52027 3.3676H0.693645ZM0.693645 2.81412H1.52027C1.71914 2.81412 1.89404 2.78776 2.04499 2.73505C2.19834 2.68234 2.32652 2.60926 2.42955 2.51582C2.53258 2.41998 2.61045 2.30617 2.66316 2.17439C2.71587 2.0426 2.74223 1.89765 2.74223 1.73951C2.74223 1.41126 2.6404 1.15488 2.43674 0.970391C2.23548 0.785898 1.92998 0.693652 1.52027 0.693652H0.693645V2.81412Z" fill="#E0097E"/>
</svg>