<svg xmlns="http://www.w3.org/2000/svg" width="92" height="9" viewBox="0 0 92 9" fill="none">
  <path d="M90.3444 6.62091C90.3444 6.53671 90.3589 6.45737 90.3881 6.38289C90.4205 6.3084 90.4626 6.24364 90.5144 6.18858C90.5694 6.13353 90.6342 6.08981 90.7087 6.05743C90.7832 6.02504 90.8625 6.00885 90.9467 6.00885C91.0309 6.00885 91.1102 6.02504 91.1847 6.05743C91.2592 6.08981 91.324 6.13353 91.379 6.18858C91.4341 6.24364 91.4762 6.3084 91.5053 6.38289C91.5377 6.45737 91.5539 6.53671 91.5539 6.62091C91.5539 6.70835 91.5377 6.78931 91.5053 6.86379C91.4762 6.93503 91.4341 6.99818 91.379 7.05324C91.324 7.10829 91.2592 7.15039 91.1847 7.17953C91.1102 7.21192 91.0309 7.22811 90.9467 7.22811C90.8625 7.22811 90.7832 7.21192 90.7087 7.17953C90.6342 7.15039 90.5694 7.10829 90.5144 7.05324C90.4626 6.99818 90.4205 6.93503 90.3881 6.86379C90.3589 6.78931 90.3444 6.70835 90.3444 6.62091Z" fill="white"/>
  <path d="M89.4331 3.10886C89.4072 3.14448 89.3813 3.17201 89.3554 3.19144C89.3295 3.21087 89.2922 3.22058 89.2436 3.22058C89.1951 3.22058 89.1416 3.20115 89.0833 3.16229C89.0283 3.12019 88.957 3.07486 88.8696 3.02628C88.7822 2.9777 88.6753 2.93399 88.549 2.89512C88.426 2.85303 88.2737 2.83198 88.0924 2.83198C87.8528 2.83198 87.6406 2.87569 87.456 2.96313C87.2715 3.04733 87.116 3.17039 86.9897 3.33231C86.8667 3.49423 86.7728 3.69015 86.708 3.92008C86.6465 4.15001 86.6157 4.40746 86.6157 4.69244C86.6157 4.99037 86.6497 5.25592 86.7177 5.48909C86.7857 5.71901 86.8812 5.91332 87.0043 6.072C87.1273 6.22744 87.2763 6.34727 87.4512 6.43146C87.6293 6.51242 87.8285 6.5529 88.0487 6.5529C88.2592 6.5529 88.4324 6.52862 88.5684 6.48004C88.7045 6.42823 88.8178 6.37155 88.9085 6.31002C88.9991 6.24849 89.0736 6.19344 89.1319 6.14486C89.1902 6.09305 89.2485 6.06714 89.3068 6.06714C89.3813 6.06714 89.4363 6.09467 89.472 6.14972L89.7148 6.46547C89.5011 6.72778 89.2339 6.92046 88.9133 7.04352C88.5927 7.16334 88.2543 7.22325 87.8981 7.22325C87.5904 7.22325 87.3038 7.16658 87.0383 7.05324C86.776 6.93989 86.5477 6.77635 86.3534 6.56262C86.1591 6.34565 86.0052 6.0801 85.8919 5.76597C85.7818 5.45185 85.7267 5.094 85.7267 4.69244C85.7267 4.3265 85.7769 3.98809 85.8773 3.6772C85.981 3.36631 86.1299 3.09914 86.3242 2.87569C86.5218 2.64901 86.7647 2.47251 87.0529 2.34622C87.3411 2.21992 87.6714 2.15677 88.0438 2.15677C88.3871 2.15677 88.6915 2.21344 88.9571 2.32678C89.2226 2.43689 89.4574 2.59395 89.6614 2.79797L89.4331 3.10886Z" fill="white"/>
  <path d="M80.6635 7.15525V2.23449H81.1784C81.3015 2.23449 81.3792 2.2944 81.4116 2.41422L81.4796 2.94856C81.6933 2.71216 81.9314 2.52109 82.1937 2.37536C82.4592 2.22963 82.7652 2.15677 83.1117 2.15677C83.3805 2.15677 83.6169 2.20211 83.821 2.29278C84.0282 2.38022 84.1998 2.50652 84.3359 2.67168C84.4751 2.8336 84.5804 3.02952 84.6516 3.25945C84.7229 3.48937 84.7585 3.74359 84.7585 4.02209V7.15525H83.8938V4.02209C83.8938 3.64967 83.808 3.36146 83.6364 3.15744C83.468 2.95018 83.2089 2.84655 82.8592 2.84655C82.6033 2.84655 82.3637 2.90808 82.1402 3.03114C81.92 3.1542 81.716 3.32098 81.5282 3.53147V7.15525H80.6635Z" fill="white"/>
  <path d="M78.9232 7.15524H77.9808V0.19429H78.9232V7.15524Z" fill="white"/>
  <path d="M73.4508 6.55776C73.4508 6.48328 73.4638 6.41365 73.4897 6.34888C73.5188 6.28088 73.5577 6.22258 73.6062 6.17401C73.6581 6.12219 73.7196 6.08171 73.7908 6.05257C73.8621 6.02342 73.9398 6.00885 74.024 6.00885C74.1211 6.00885 74.207 6.02666 74.2815 6.06228C74.3592 6.09791 74.4223 6.1481 74.4709 6.21287C74.5227 6.2744 74.5616 6.34726 74.5875 6.43146C74.6134 6.51242 74.6263 6.60148 74.6263 6.69863C74.6263 6.84436 74.6053 6.99656 74.5632 7.15525C74.5211 7.31069 74.4612 7.46451 74.3835 7.61672C74.3057 7.77216 74.2086 7.92275 74.092 8.06848C73.9787 8.2142 73.8491 8.3486 73.7034 8.47166L73.5577 8.33079C73.5156 8.29193 73.4945 8.24659 73.4945 8.19477C73.4945 8.15267 73.5172 8.10896 73.5625 8.06362C73.5949 8.028 73.6354 7.97942 73.684 7.91789C73.7358 7.8596 73.7876 7.79159 73.8394 7.71387C73.8912 7.63615 73.9382 7.55033 73.9803 7.45642C74.0256 7.3625 74.058 7.26211 74.0774 7.15525H74.0143C73.9301 7.15525 73.854 7.14067 73.786 7.11153C73.718 7.08238 73.6581 7.0419 73.6062 6.99009C73.5577 6.93503 73.5188 6.87189 73.4897 6.80064C73.4638 6.72616 73.4508 6.6452 73.4508 6.55776Z" fill="white"/>
  <path d="M69.5112 6.36345H72.5229V7.15524H68.5688V0.19429H69.5112V6.36345Z" fill="white"/>
  <path d="M66.6924 7.15524H65.75V0.19429H66.6924V7.15524Z" fill="white"/>
  <path d="M63.8618 7.15524H62.9145V3.98808H59.1645V7.15524H58.2172V0.19429H59.1645V3.2983H62.9145V0.19429H63.8618V7.15524Z" fill="white"/>
  <path d="M53.2981 4.55157V7.15524H52.3606V0.19429H54.4154C54.8558 0.19429 55.2379 0.246105 55.5618 0.349734C55.8888 0.450124 56.1592 0.594233 56.373 0.782061C56.5867 0.969888 56.7454 1.19658 56.849 1.46213C56.9559 1.72768 57.0093 2.02399 57.0093 2.35107C57.0093 2.67491 56.9527 2.97122 56.8393 3.24001C56.726 3.5088 56.5592 3.74034 56.339 3.93465C56.122 4.12895 55.8516 4.28116 55.5278 4.39126C55.2039 4.49813 54.8331 4.55157 54.4154 4.55157H53.2981ZM53.2981 3.80349H54.4154C54.6842 3.80349 54.9206 3.76787 55.1246 3.69663C55.3318 3.62538 55.5051 3.52661 55.6443 3.40031C55.7836 3.27078 55.8888 3.11695 55.9601 2.93884C56.0313 2.76073 56.0669 2.5648 56.0669 2.35107C56.0669 1.90741 55.9293 1.5609 55.6541 1.31154C55.382 1.06218 54.9691 0.937504 54.4154 0.937504H53.2981V3.80349Z" fill="white"/>
  <path d="M46.691 8.60768C46.6619 8.67245 46.6246 8.72426 46.5793 8.76312C46.5372 8.80198 46.4708 8.82141 46.3801 8.82141H45.7389L46.6376 6.86866L44.6071 2.2345H45.3552C45.4297 2.2345 45.488 2.25393 45.5301 2.29279C45.5722 2.32841 45.6029 2.36889 45.6224 2.41423L46.9388 5.51338C46.9679 5.58463 46.9922 5.65587 47.0116 5.72712C47.0343 5.79836 47.0537 5.87123 47.0699 5.94571C47.0926 5.87123 47.1153 5.79836 47.1379 5.72712C47.1606 5.65587 47.1865 5.58301 47.2157 5.50852L48.4932 2.41423C48.5126 2.36241 48.545 2.32031 48.5904 2.28793C48.6389 2.25231 48.6907 2.2345 48.7458 2.2345H49.4356L46.691 8.60768Z" fill="white"/>
  <path d="M39.9594 7.15526V0H40.8289V2.94371C41.0329 2.70731 41.2661 2.51786 41.5284 2.37537C41.794 2.22964 42.0968 2.15678 42.4368 2.15678C42.7218 2.15678 42.9792 2.21021 43.2092 2.31708C43.4391 2.42395 43.635 2.58425 43.7969 2.79798C43.9588 3.00848 44.0835 3.27079 44.171 3.58492C44.2584 3.8958 44.3021 4.25527 44.3021 4.6633C44.3021 5.02601 44.2535 5.36442 44.1564 5.67854C44.0592 5.98943 43.9184 6.25984 43.7338 6.48977C43.5524 6.71645 43.329 6.89618 43.0634 7.02896C42.8011 7.15849 42.5048 7.22326 42.1745 7.22326C41.8571 7.22326 41.5867 7.16173 41.3633 7.03867C41.143 6.91561 40.9504 6.74398 40.7852 6.52377L40.7415 6.97067C40.7156 7.09373 40.6411 7.15526 40.518 7.15526H39.9594ZM42.155 2.84656C41.8733 2.84656 41.6256 2.91133 41.4118 3.04086C41.2013 3.1704 41.007 3.35337 40.8289 3.58977V5.97C40.9844 6.18374 41.156 6.33432 41.3438 6.42176C41.5349 6.50919 41.747 6.55291 41.9802 6.55291C42.44 6.55291 42.793 6.38937 43.0391 6.06229C43.2853 5.73522 43.4083 5.26889 43.4083 4.6633C43.4083 4.3427 43.3792 4.06744 43.3209 3.83751C43.2658 3.60758 43.1849 3.41976 43.078 3.27403C42.9711 3.12506 42.84 3.01657 42.6845 2.94857C42.5291 2.88056 42.3526 2.84656 42.155 2.84656Z" fill="white"/>
  <path d="M36.0591 7.15526C35.9361 7.15526 35.8584 7.09535 35.826 6.97553L35.7483 6.37804C35.5378 6.63387 35.2965 6.83951 35.0245 6.99496C34.7557 7.14716 34.4464 7.22326 34.0967 7.22326C33.8149 7.22326 33.5591 7.16983 33.3292 7.06296C33.0992 6.95286 32.9033 6.79256 32.7414 6.58206C32.5795 6.37156 32.4548 6.10925 32.3674 5.79513C32.2799 5.481 32.2362 5.11992 32.2362 4.71188C32.2362 4.34918 32.2848 4.01238 32.3819 3.7015C32.4791 3.38737 32.6183 3.11535 32.7997 2.88542C32.9843 2.65549 33.2077 2.47576 33.47 2.34622C33.7323 2.21345 34.0303 2.14706 34.3638 2.14706C34.665 2.14706 34.9225 2.19888 35.1362 2.30251C35.3499 2.4029 35.541 2.54539 35.7094 2.72998V0H36.574V7.15526H36.0591ZM34.3833 6.52377C34.665 6.52377 34.9111 6.459 35.1216 6.32946C35.3354 6.19993 35.5313 6.01696 35.7094 5.78055V3.40033C35.5507 3.18659 35.3758 3.03762 35.1848 2.95343C34.9969 2.86599 34.7881 2.82227 34.5581 2.82227C34.0983 2.82227 33.7453 2.98581 33.4992 3.31289C33.2531 3.63997 33.13 4.1063 33.13 4.71188C33.13 5.03248 33.1575 5.30775 33.2126 5.53767C33.2676 5.76436 33.3486 5.95219 33.4555 6.10116C33.5623 6.24688 33.6935 6.35375 33.8489 6.42176C34.0044 6.48976 34.1825 6.52377 34.3833 6.52377Z" fill="white"/>
  <path d="M29.4342 2.15677C29.7289 2.15677 30.001 2.20696 30.2503 2.30735C30.4997 2.40451 30.715 2.547 30.8964 2.73482C31.0777 2.91941 31.2186 3.14934 31.319 3.4246C31.4226 3.69663 31.4744 4.00752 31.4744 4.35727C31.4744 4.49328 31.4599 4.58395 31.4307 4.62929C31.4016 4.67463 31.3465 4.6973 31.2656 4.6973H27.9915C27.998 5.00818 28.0401 5.27859 28.1178 5.50852C28.1956 5.73845 28.3024 5.93113 28.4384 6.08657C28.5744 6.23878 28.7364 6.35374 28.9242 6.43146C29.112 6.50595 29.3225 6.54319 29.5557 6.54319C29.7727 6.54319 29.9589 6.5189 30.1143 6.47032C30.273 6.41851 30.409 6.36346 30.5224 6.30517C30.6357 6.24687 30.7296 6.19344 30.8041 6.14486C30.8818 6.09305 30.9482 6.06714 31.0033 6.06714C31.0745 6.06714 31.1296 6.09467 31.1684 6.14972L31.4113 6.46547C31.3044 6.595 31.1765 6.70835 31.0275 6.8055C30.8786 6.89941 30.7183 6.97713 30.5466 7.03866C30.3782 7.10019 30.2034 7.14553 30.022 7.17468C29.8407 7.20706 29.6609 7.22325 29.4828 7.22325C29.1428 7.22325 28.8287 7.16658 28.5404 7.05324C28.2555 6.93665 28.0077 6.76826 27.7972 6.54805C27.59 6.3246 27.4281 6.04933 27.3115 5.72225C27.1949 5.39517 27.1366 5.01952 27.1366 4.59529C27.1366 4.25202 27.1884 3.93141 27.292 3.63348C27.3989 3.33555 27.5511 3.07809 27.7487 2.86112C27.9462 2.64091 28.1875 2.46927 28.4724 2.34622C28.7574 2.21992 29.078 2.15677 29.4342 2.15677ZM29.4537 2.79312C29.0359 2.79312 28.7072 2.91456 28.4676 3.15744C28.2279 3.39708 28.079 3.73063 28.0207 4.1581H30.6972C30.6972 3.95732 30.6697 3.77435 30.6146 3.60919C30.5596 3.4408 30.4786 3.29669 30.3718 3.17687C30.2649 3.05381 30.1337 2.95989 29.9783 2.89512C29.8261 2.82712 29.6512 2.79312 29.4537 2.79312Z" fill="white"/>
  <path d="M23.5534 7.15524V2.23449H24.0489C24.1428 2.23449 24.2076 2.2523 24.2432 2.28792C24.2788 2.32354 24.3031 2.38507 24.316 2.47251L24.3743 3.24001C24.5427 2.89674 24.75 2.62957 24.9961 2.43851C25.2455 2.2442 25.5369 2.14705 25.8705 2.14705C26.0065 2.14705 26.1296 2.16324 26.2397 2.19562C26.3498 2.22477 26.4518 2.26687 26.5457 2.32192L26.434 2.96798C26.4113 3.04894 26.3611 3.08942 26.2834 3.08942C26.238 3.08942 26.1684 3.07485 26.0745 3.04571C25.9806 3.01332 25.8494 2.99713 25.681 2.99713C25.3799 2.99713 25.1273 3.08457 24.9233 3.25944C24.7225 3.43431 24.5541 3.68853 24.4181 4.02209V7.15524H23.5534Z" fill="white"/>
  <path d="M20.3919 2.15677C20.6866 2.15677 20.9587 2.20696 21.208 2.30735C21.4574 2.40451 21.6727 2.547 21.8541 2.73482C22.0354 2.91941 22.1763 3.14934 22.2767 3.4246C22.3803 3.69663 22.4321 4.00752 22.4321 4.35727C22.4321 4.49328 22.4176 4.58395 22.3884 4.62929C22.3593 4.67463 22.3042 4.6973 22.2233 4.6973H18.9492C18.9557 5.00818 18.9978 5.27859 19.0755 5.50852C19.1533 5.73845 19.2601 5.93113 19.3961 6.08657C19.5322 6.23878 19.6941 6.35374 19.8819 6.43146C20.0697 6.50595 20.2802 6.54319 20.5134 6.54319C20.7304 6.54319 20.9166 6.5189 21.072 6.47032C21.2307 6.41851 21.3667 6.36346 21.4801 6.30517C21.5934 6.24687 21.6873 6.19344 21.7618 6.14486C21.8395 6.09305 21.9059 6.06714 21.961 6.06714C22.0322 6.06714 22.0873 6.09467 22.1261 6.14972L22.369 6.46547C22.2621 6.595 22.1342 6.70835 21.9852 6.8055C21.8363 6.89941 21.676 6.97713 21.5043 7.03866C21.3359 7.10019 21.1611 7.14553 20.9797 7.17468C20.7984 7.20706 20.6186 7.22325 20.4405 7.22325C20.1005 7.22325 19.7864 7.16658 19.4981 7.05324C19.2132 6.93665 18.9654 6.76826 18.7549 6.54805C18.5477 6.3246 18.3858 6.04933 18.2692 5.72225C18.1526 5.39517 18.0943 5.01952 18.0943 4.59529C18.0943 4.25202 18.1461 3.93141 18.2497 3.63348C18.3566 3.33555 18.5088 3.07809 18.7064 2.86112C18.9039 2.64091 19.1452 2.46927 19.4301 2.34622C19.7151 2.21992 20.0357 2.15677 20.3919 2.15677ZM20.4114 2.79312C19.9936 2.79312 19.6649 2.91456 19.4253 3.15744C19.1856 3.39708 19.0367 3.73063 18.9784 4.1581H21.6549C21.6549 3.95732 21.6274 3.77435 21.5723 3.60919C21.5173 3.4408 21.4363 3.29669 21.3295 3.17687C21.2226 3.05381 21.0914 2.95989 20.936 2.89512C20.7838 2.82712 20.6089 2.79312 20.4114 2.79312Z" fill="white"/>
  <path d="M10.35 2.23449H11.0301C11.1013 2.23449 11.1596 2.2523 11.205 2.28793C11.2503 2.32355 11.2811 2.36565 11.2973 2.41422L12.2396 5.58139C12.2656 5.69797 12.2898 5.81131 12.3125 5.92142C12.3352 6.02828 12.3546 6.13677 12.3708 6.24688C12.3967 6.13677 12.4259 6.02828 12.4582 5.92142C12.4906 5.81131 12.5246 5.69797 12.5602 5.58139L13.5998 2.39479C13.616 2.34622 13.6435 2.30574 13.6824 2.27335C13.7245 2.24097 13.7763 2.22478 13.8378 2.22478H14.2118C14.2766 2.22478 14.33 2.24097 14.3721 2.27335C14.4142 2.30574 14.4434 2.34622 14.4596 2.39479L15.4748 5.58139C15.5104 5.69473 15.5412 5.80645 15.5671 5.91656C15.5963 6.02667 15.6238 6.13515 15.6497 6.24202C15.6659 6.13515 15.6869 6.02343 15.7128 5.90684C15.7387 5.79026 15.7663 5.68178 15.7954 5.58139L16.7572 2.41422C16.7734 2.36241 16.8042 2.32031 16.8495 2.28793C16.8949 2.2523 16.9483 2.23449 17.0098 2.23449H17.6607L16.0674 7.15525H15.3825C15.2983 7.15525 15.24 7.1002 15.2076 6.99009L14.1195 3.65291C14.0936 3.57843 14.0726 3.50395 14.0564 3.42946C14.0402 3.35174 14.024 3.27564 14.0078 3.20116C13.9916 3.27564 13.9754 3.35174 13.9592 3.42946C13.943 3.50719 13.922 3.58329 13.8961 3.65777L12.7934 6.99009C12.7578 7.1002 12.6914 7.15525 12.5943 7.15525H11.9433L10.35 2.23449Z" fill="white"/>
  <path d="M7.56989 2.15677C7.92936 2.15677 8.2532 2.21668 8.54141 2.3365C8.83287 2.45632 9.07899 2.62634 9.27977 2.84655C9.48379 3.06676 9.63923 3.33393 9.7461 3.64805C9.85621 3.95894 9.91126 4.30707 9.91126 4.69244C9.91126 5.08105 9.85621 5.4308 9.7461 5.74168C9.63923 6.05257 9.48379 6.31812 9.27977 6.53833C9.07899 6.75854 8.83287 6.92856 8.54141 7.04838C8.2532 7.16496 7.92936 7.22325 7.56989 7.22325C7.21043 7.22325 6.88497 7.16496 6.59351 7.04838C6.3053 6.92856 6.05918 6.75854 5.85516 6.53833C5.65114 6.31812 5.49407 6.05257 5.38397 5.74168C5.27386 5.4308 5.21881 5.08105 5.21881 4.69244C5.21881 4.30707 5.27386 3.95894 5.38397 3.64805C5.49407 3.33393 5.65114 3.06676 5.85516 2.84655C6.05918 2.62634 6.3053 2.45632 6.59351 2.3365C6.88497 2.21668 7.21043 2.15677 7.56989 2.15677ZM7.56989 6.54805C8.05565 6.54805 8.41835 6.38613 8.658 6.06229C8.89764 5.73521 9.01746 5.28021 9.01746 4.6973C9.01746 4.11115 8.89764 3.65453 8.658 3.32745C8.41835 3.00037 8.05565 2.83683 7.56989 2.83683C7.32377 2.83683 7.11004 2.87893 6.92869 2.96313C6.74734 3.04733 6.59513 3.16877 6.47207 3.32745C6.35225 3.48613 6.26158 3.68206 6.20005 3.91522C6.14175 4.14515 6.11261 4.40584 6.11261 4.6973C6.11261 4.98875 6.14175 5.24945 6.20005 5.47937C6.26158 5.7093 6.35225 5.9036 6.47207 6.06229C6.59513 6.21773 6.74734 6.33755 6.92869 6.42175C7.11004 6.50595 7.32377 6.54805 7.56989 6.54805Z" fill="white"/>
  <path d="M0.937518 4.55157V7.15524H0V0.19429H2.05477C2.49519 0.19429 2.87732 0.246105 3.20116 0.349734C3.52824 0.450124 3.79865 0.594233 4.01238 0.782061C4.22612 0.969888 4.3848 1.19658 4.48843 1.46213C4.5953 1.72768 4.64873 2.02399 4.64873 2.35107C4.64873 2.67491 4.59206 2.97122 4.47871 3.24001C4.36537 3.5088 4.19859 3.74034 3.97838 3.93465C3.76141 4.12895 3.491 4.28116 3.16716 4.39126C2.84332 4.49813 2.47252 4.55157 2.05477 4.55157H0.937518ZM0.937518 3.80349H2.05477C2.32356 3.80349 2.55996 3.76787 2.76398 3.69663C2.97124 3.62538 3.14449 3.52661 3.28374 3.40031C3.42299 3.27078 3.52824 3.11695 3.59949 2.93884C3.67073 2.76073 3.70636 2.5648 3.70636 2.35107C3.70636 1.90741 3.56872 1.5609 3.29346 1.31154C3.02143 1.06218 2.60854 0.937504 2.05477 0.937504H0.937518V3.80349Z" fill="white"/>
</svg>