<svg width="18" height="14" viewBox="0 0 18 14" fill="none" xmlns="http://www.w3.org/2000/svg">
<path d="M14.2993 0.601963C15.1678 -0.22183 16.5508 -0.197006 17.3881 0.657425C18.2255 1.51187 18.2003 2.87237 17.3317 3.69617L6.46852 14L4.95322 12.5967L6.45049 11.0319L4.95316 12.5967L4.95271 12.5962C4.95234 12.5959 4.95188 12.5955 4.95117 12.5948C4.94981 12.5936 4.94773 12.5916 4.94503 12.5891C4.93961 12.5841 4.93149 12.5766 4.92091 12.5668C4.89973 12.5472 4.86852 12.5183 4.82824 12.481C4.7477 12.4064 4.63105 12.2984 4.48663 12.1646C4.19779 11.8971 3.79782 11.5268 3.35344 11.1153C2.46469 10.2922 1.3982 9.30456 0.687199 8.64614C-0.19127 7.83262 -0.233069 6.47252 0.593847 5.60828C1.42076 4.74405 2.80326 4.70293 3.68174 5.51644C4.39274 6.17487 5.45923 7.16254 6.34798 7.98558C6.37631 8.01181 6.40445 8.03788 6.4324 8.06376L14.2993 0.601963Z" fill="#E0097E"/>
</svg>

