<svg width="109" height="100" viewBox="0 0 109 100" fill="none" xmlns="http://www.w3.org/2000/svg">
  <defs>
    <mask id="topLeftCutout">
      <rect x="0" y="0" width="109" height="100" fill="white"/>
      <rect x="0" y="0" width="40" height="40" fill="black"/>
    </mask>
  </defs>
  <path d="M89 70C89 81.0457 80.0457 90 69 90C57.9543 90 49 81.0457 49 70C49 58.9543 57.9543 50 69 50C80.0457 50 89 58.9543 89 70Z" fill="#E0097E"/>
  <path d="M80 40C80 62.0914 62.0914 80 40 80C17.9086 80 0 62.0914 0 40C0 17.9086 17.9086 0 40 0C62.0914 0 80 17.9086 80 40Z" fill="#E0097E" mask="url(#topLeftCutout)"/>
  <path d="M84 70C84 78.2843 77.2843 85 69 85C60.7157 85 54 78.2843 54 70C54 61.7157 60.7157 55 69 55C77.2843 55 84 61.7157 84 70Z" fill="#E0097E"/>
  <path d="M109 90C109 95.5228 104.523 100 99 100C93.4772 100 89 95.5228 89 90C89 84.4772 93.4772 80 99 80C104.523 80 109 84.4772 109 90Z" fill="#E0097E"/>
</svg>
