<svg width="42" height="29" viewBox="0 0 42 29" fill="none" xmlns="http://www.w3.org/2000/svg">
<path d="M0.527344 13.6874H10.2218V14.9371C10.2218 16.8842 9.38157 19.0639 8.31519 19.8776C7.76584 20.2845 6.73177 20.6914 5.89158 20.7786L4.40511 20.982V28.5382L6.27936 28.3638C9.57546 28.0441 11.5467 27.5501 13.227 26.6491C17.7188 24.2079 18.9467 19.9358 18.9467 6.62526V0.609375H0.527344V13.6874Z" fill="#00827E"/>
<path d="M23.4711 13.6874H28.4799C32.2607 13.6874 33.4886 13.7746 33.4886 14.0361C33.4886 15.1114 32.81 17.8723 32.3253 18.7733C31.7437 19.9067 30.7742 20.4879 28.9 20.7786L27.672 20.982V28.5382L29.5463 28.3638C36.5585 27.6663 39.0791 26.0388 40.9533 20.8076C41.632 18.9186 41.6966 18.163 41.8258 9.67679L41.9551 0.609375H23.4711V13.6874Z" fill="#00827E"/>
</svg>
