<svg width="14" height="14" viewBox="0 0 14 14" fill="none" xmlns="http://www.w3.org/2000/svg">
<path fill-rule="evenodd" clip-rule="evenodd" d="M10.4038 5.68957C10.4038 8.29316 8.29316 10.4038 5.68957 10.4038C3.08598 10.4038 0.975355 8.29316 0.975355 5.68957C0.975355 3.08598 3.08598 0.975355 5.68957 0.975355C8.29316 0.975355 10.4038 3.08598 10.4038 5.68957ZM9.35495 10.0413C8.36488 10.8761 7.08597 11.3791 5.68957 11.3791C2.54731 11.3791 0 8.83183 0 5.68957C0 2.54731 2.54731 0 5.68957 0C8.83183 0 11.3791 2.54731 11.3791 5.68957C11.3791 7.08427 10.8773 8.36177 10.0443 9.35134L14 13.307L13.3103 13.9967L9.35495 10.0413Z" fill="#6A7979"/>
</svg>
