<svg width="80" height="80" viewBox="0 0 80 80" fill="none" xmlns="http://www.w3.org/2000/svg">
  <path d="M0 40C0 17.9086 17.9086 0 40 0C62.0914 0 80 17.9086 80 40C80 62.0914 62.0914 80 40 80C17.9086 80 0 62.0914 0 40Z" fill="#00827E"/>
  <path d="M21.3697 27.5797C20.9672 27.2439 20.4597 26.7531 20.164 26.6112C19.3036 26.2639 19.1719 28.0549 19.0932 28.5812C19.0767 30.9221 17.4943 32.8713 17.2935 35.1772C17.17 36.4368 17.8759 37.5255 18.2215 38.6801C18.5616 39.935 18.4082 41.3857 19.0748 42.5479C19.5215 43.3466 20.2929 43.763 20.9189 44.3952C21.8736 45.543 22.1799 45.8233 23.6956 46.1306C24.7799 46.2837 25.6107 46.7827 26.4976 47.4193C27.0625 47.7852 27.6501 48.0909 28.2922 48.1644C30.5101 48.2392 31.2361 46.5403 32.7903 49.2031C33.42 50.2728 34.3457 51.2853 35.6437 50.7874C36.0022 50.6823 36.3554 50.4741 36.6929 50.8926C37.0498 51.3352 37.2862 51.8426 37.5206 52.3488C37.9855 53.2985 38.6398 54.8754 39.8369 54.9927C41.2 54.9948 41.4583 53.8131 41.6681 52.7377C42.5381 49.675 44.6914 51.5282 46.6739 50.496C47.9301 49.7713 47.579 47.9008 49.302 48.5916C50.729 49.2479 52.4824 48.3012 53.5099 49.5097C54.3553 50.497 55.0169 51.6278 55.8382 52.6193C56.3926 53.2774 57.2791 53.4397 57.8138 52.6358C58.287 51.9754 57.793 50.7824 57.522 50.1804C56.9671 48.7518 55.1923 47.1367 55.3171 45.4515C56.3196 43.1832 60.3443 42.4179 58.4576 39.2794C57.285 37.5213 58.6951 37.2291 59.3267 35.7919C59.5877 35.2486 59.2708 34.6773 59.5261 34.1439C59.9682 33.4824 60.6956 33.1113 60.9938 32.3306C61.4319 30.8405 60.1456 30.916 61.7707 29.4644C62.2472 28.9499 62.9269 28.3012 62.6604 27.536C62.5716 27.3289 62.3733 27.1098 62.2736 26.9629C62.038 26.6189 61.8517 26.1346 61.58 25.7556C61.1944 25.1924 60.4588 24.7343 59.8135 25.1979C58.5263 26.1004 59.0013 27.4676 58.1032 28.3567C57.6153 28.7785 57.0128 29.047 56.5692 29.5246C56.0773 30.0312 55.9321 30.761 55.5051 31.3106C55.0201 31.8771 54.2895 32.0875 53.7018 32.518C52.9907 33.0329 52.5607 33.9222 51.5475 33.6805C49.9685 33.4947 49.9731 35.0825 48.9363 34.671C48.0812 33.938 49.2363 31.2483 47.894 30.9358C47.1402 30.8644 46.5125 31.0397 45.8273 30.7221C45.2484 30.3057 45.4111 29.2522 44.4084 29.0414C43.7498 28.8978 43.0763 29.0877 42.414 28.9559C41.1784 28.6798 40.0796 28.0651 38.7851 28.0542C36.6624 28.0377 34.8788 28.5812 32.694 28.3073C30.5342 28.0356 28.229 27.7243 26.1245 27.1689C24.4769 26.8101 21.5734 24.5438 21.3697 27.5797Z" fill="#D5F1F0" fill-rule="evenodd" clip-rule="evenodd" stroke="#D5F1F0"/>
</svg>
