<svg width="43" height="29" viewBox="0 0 43.4332 28.9557" fill="none" xmlns="http://www.w3.org/2000/svg">
  <path d="M42.5283 23.5263H39.8138V3.61945C39.8138 1.62331 38.1905 0 36.1943 0H7.23893C5.24279 0 3.61948 1.62323 3.61948 3.61945V23.5263H0.904909C0.404834 23.5263 0.000108719 23.931 0.000108719 24.4311V25.336C0.000108719 27.3321 1.62334 28.9555 3.61956 28.9555H39.8138C41.81 28.9555 43.4332 27.3321 43.4332 25.336V24.4311C43.4332 23.931 43.0285 23.5263 42.5283 23.5263ZM5.42925 3.61945C5.42925 2.62185 6.24133 1.80977 7.23893 1.80977H36.1943C37.1919 1.80977 38.004 2.62185 38.004 3.61945V23.5263H5.42925V3.61945ZM39.8138 27.1457H3.61956C2.62196 27.1457 1.80988 26.3336 1.80988 25.336H16.8177L17.4575 25.9758C17.6272 26.1455 17.8569 26.2409 18.0973 26.2409H25.3361C25.5764 26.2409 25.8062 26.1455 25.9759 25.9758L26.6156 25.336H41.6235C41.6235 26.3336 40.8115 27.1457 39.8138 27.1457Z" fill="#00827E"/>
  <path d="M23.4581 7.00085H17.6958V18.5084H20.6632V9.50223H23.0954C23.8208 9.50223 24.4362 10.0757 24.4421 10.8011C24.4481 11.5846 23.8601 12.0898 23.0622 12.0898H21.9126V14.6091H23.4581C26.0457 14.6091 27.4607 12.9014 27.4607 10.831C27.4607 8.76061 26.0466 7.00085 23.4581 7.00085Z" fill="#00827E"/>
</svg>
