<svg width="40" height="29" viewBox="0 0 40 28.9887" fill="none" xmlns="http://www.w3.org/2000/svg">
  <path d="M25.8 24.6151V4.37358C25.8 3.47885 25.4523 2.62077 24.8335 1.9881C24.2146 1.35543 23.3752 1 22.5 1H4.3C3.42479 1 2.58542 1.35543 1.96655 1.9881C1.34768 2.62077 1 3.47885 1 4.37358V22.9283C1 23.3757 1.17384 23.8047 1.48327 24.121C1.79271 24.4374 2.21239 24.6151 2.65 24.6151H5.95M5.95 24.6151C5.95 26.4783 7.42746 27.9887 9.25 27.9887C11.0725 27.9887 12.55 26.4783 12.55 24.6151M5.95 24.6151C5.95 22.7519 7.42746 21.2415 9.25 21.2415C11.0725 21.2415 12.55 22.7519 12.55 24.6151M27.45 24.6151H12.55M27.45 24.6151C27.45 26.4783 28.9275 27.9887 30.75 27.9887C32.5725 27.9887 34.05 26.4783 34.05 24.6151M27.45 24.6151C27.45 22.7519 28.9275 21.2415 30.75 21.2415C32.5725 21.2415 34.05 22.7519 34.05 24.6151M34.05 24.6151H37.35C37.7876 24.6151 38.2073 24.4374 38.5167 24.121C38.8262 23.8047 39 23.3757 39 22.9283V16.7715C38.9993 16.3887 38.8713 16.0175 38.637 15.7189L32.895 8.3814C32.7407 8.18385 32.5449 8.02428 32.3221 7.91449C32.0994 7.80471 31.8553 7.74753 31.608 7.74717H25.8" stroke="#D5F1F0" stroke-width="2" stroke-linecap="round" stroke-linejoin="round"/>
</svg>
