<svg width="80" height="80" viewBox="0 0 80 80" fill="none" xmlns="http://www.w3.org/2000/svg">
  <path d="M0 40C0 17.9086 17.9086 0 40 0C62.0914 0 80 17.9086 80 40C80 62.0914 62.0914 80 40 80C17.9086 80 0 62.0914 0 40Z" fill="#D5F1F0"/>
  <path d="M56.1848 35.7967C54.112 35.7967 52.3763 37.228 51.9634 39.1292H47.4658C47.2936 37.6157 46.6778 36.2313 45.7485 35.1009L49.5133 31.4336C50.0452 31.7372 50.6521 31.8995 51.2847 31.8996C52.2232 31.8996 53.1058 31.5436 53.7699 30.897C55.1396 29.5624 55.1396 27.3909 53.7697 26.0564C53.1059 25.4099 52.2234 25.0538 51.2848 25.0538C50.3462 25.0538 49.4638 25.4098 48.8001 26.0564C48.1363 26.7029 47.7708 27.5624 47.7708 28.4768C47.7708 29.0931 47.9374 29.6841 48.249 30.2022L44.4841 33.8695C43.3235 32.9643 41.9023 32.3646 40.3485 32.1967V27.8153C42.3003 27.4131 43.7697 25.7224 43.7697 23.7032C43.7697 21.3856 41.834 19.5 39.4548 19.5C37.0753 19.5 35.1396 21.3856 35.1396 23.7033C35.1396 25.7224 36.6089 27.4131 38.5605 27.8153V32.1965C37.0067 32.3643 35.5854 32.9641 34.4249 33.8694L31.2419 30.7689C31.6957 30.0927 31.9397 29.3029 31.9397 28.4763C31.9397 27.3537 31.4907 26.2981 30.6757 25.5042C29.8607 24.7103 28.7771 24.2732 27.6244 24.2732C26.4719 24.2732 25.3882 24.7103 24.5733 25.5042C22.891 27.143 22.8909 29.8097 24.5731 31.4485C25.3881 32.2424 26.4719 32.6797 27.6245 32.6797C28.4728 32.6797 29.2835 32.4422 29.9774 32.0005L33.1605 35.1011C32.2313 36.2317 31.6156 37.616 31.4435 39.1295L25.8215 39.1294C25.4331 37.8199 24.1921 36.8591 22.7241 36.8591C20.9467 36.8592 19.5004 38.2681 19.5 39.9999C19.5004 41.7315 20.9467 43.1404 22.7242 43.1404C24.1917 43.1404 25.4325 42.1801 25.8212 40.8712L31.4435 40.8713C31.6158 42.3848 32.2315 43.769 33.1609 44.8995L29.978 47.9998C29.2838 47.5579 28.4729 47.3201 27.6243 47.3201C26.4716 47.3201 25.388 47.7574 24.573 48.5514C22.8908 50.1903 22.8909 52.8567 24.5731 54.4955C25.3881 55.2893 26.4719 55.7267 27.6245 55.7267C28.7769 55.7267 29.8607 55.2895 30.6755 54.4956C32.1411 53.068 32.3296 50.8608 31.2418 49.232L34.4254 46.1311C35.5859 47.0361 37.007 47.636 38.5608 47.8037V52.1847C36.6089 52.5868 35.1394 54.2776 35.1394 56.2968C35.1394 58.6143 37.075 60.4998 39.4542 60.5C41.8335 60.4998 43.7695 58.6141 43.7695 56.2968C43.7695 54.2778 42.3003 52.5871 40.3488 52.1848V47.8036C41.9024 47.6357 43.3237 47.036 44.4842 46.1308L47.6675 49.2317C46.5794 50.8604 46.7676 53.0682 48.2334 54.4958C49.0482 55.2895 50.1319 55.7267 51.2845 55.7268C52.4368 55.7268 53.5208 55.2897 54.3362 54.4957C56.0183 52.8566 56.0182 50.19 54.3361 48.5515C53.521 47.7575 52.4373 47.3203 51.2847 47.3203C50.4363 47.3203 49.6256 47.5579 48.9314 47.9996L45.7485 44.8991C46.6778 43.7687 47.2936 42.3843 47.4658 40.8708H51.9634C52.3763 42.772 54.112 44.2033 56.1848 44.2033C58.5642 44.2033 60.5 42.3177 60.5 40C60.5 37.6823 58.5642 35.7967 56.1848 35.7967Z" fill="#00827E" stroke="#00827E" stroke-width="0.3"/>
</svg>
