<svg width="37" height="37" viewBox="0 0 37.6916 36.9548" fill="none" xmlns="http://www.w3.org/2000/svg">
  <path d="M11.1381 20.2119C8.02129 20.2119 5.48648 17.6771 5.48648 14.5603C5.48648 11.4435 8.02129 8.90866 11.1381 8.90866C14.2549 8.90866 16.7897 11.4446 16.7897 14.5603C16.7897 17.6759 14.2549 20.2119 11.1381 20.2119ZM11.1381 10.311C8.79493 10.311 6.88886 12.2171 6.88886 14.5603C6.88886 16.9034 8.79493 18.8095 11.1381 18.8095C13.4812 18.8095 15.3873 16.9034 15.3873 14.5603C15.3873 12.2171 13.4812 10.311 11.1381 10.311ZM21.975 33.7729C21.975 35.3623 20.6825 36.6548 19.0931 36.6548H3.1819C1.59253 36.6548 0.3 35.3623 0.3 33.7729V33.2505C0.3 27.2752 5.16159 22.4136 11.1369 22.4136C17.1122 22.4136 21.9738 27.2752 21.9738 33.2505V33.7729H21.975ZM20.5726 33.2505C20.5726 28.0477 16.3397 23.816 11.1381 23.816C5.93524 23.816 1.70355 28.0488 1.70355 33.2505V33.7729C1.70355 34.5886 2.36735 35.2524 3.18307 35.2524H19.0943C19.91 35.2524 20.5738 34.5886 20.5738 33.7729V33.2505H20.5726Z" fill="#00827E" stroke="#00827E" stroke-width="0.6"/>
  <circle cx="28.7829" cy="8.90866" r="8.05866" stroke="#00827E" stroke-width="1.7"/>
  <path d="M29.0967 5.31282V12.5047M32.6926 8.90865L25.5008 8.90865" stroke="#00827E" stroke-width="1.7" stroke-linecap="round"/>
</svg>
