<svg width="47" height="30" viewBox="0 0 46.8704 30.392" fill="none" xmlns="http://www.w3.org/2000/svg">
  <path d="M33.5623 6.71347V23.6785M37.8036 9.25823H31.4417C30.6543 9.25823 29.8992 9.57102 29.3424 10.1278C28.7856 10.6846 28.4728 11.4397 28.4728 12.2271C28.4728 13.0145 28.7856 13.7697 29.3424 14.3264C29.8992 14.8832 30.6543 15.196 31.4417 15.196H35.683C36.4704 15.196 37.2255 15.5088 37.7823 16.0656C38.3391 16.6223 38.6519 17.3775 38.6519 18.1649C38.6519 18.9523 38.3391 19.7074 37.7823 20.2642C37.2255 20.821 36.4704 21.1338 35.683 21.1338H28.4728" stroke="#00827E" stroke-width="2" stroke-linecap="round" stroke-linejoin="round"/>
  <rect x="1" y="1" width="44.8704" height="28.392" rx="1.86817" stroke="#00827E" stroke-width="2"/>
  <path d="M24.1621 11.6632L23.7896 12.0357C23.6035 12.2218 23.3825 12.3695 23.1392 12.4703C22.896 12.571 22.6353 12.6229 22.372 12.6229C22.1087 12.6229 21.848 12.571 21.6048 12.4703C21.3616 12.3695 21.1406 12.2218 20.9544 12.0357L20.582 11.6632C20.3958 11.4771 20.1748 11.3294 19.9315 11.2286C19.6883 11.1279 19.4276 11.076 19.1643 11.076C18.9011 11.076 18.6404 11.1279 18.3971 11.2286C18.1539 11.3294 17.9329 11.4771 17.7467 11.6632L17.3743 12.0357C17.1881 12.2218 16.9671 12.3695 16.7239 12.4703C16.4806 12.571 16.22 12.6229 15.9567 12.6229C15.6934 12.6229 15.4327 12.571 15.1895 12.4703C14.9462 12.3695 14.7252 12.2219 14.5391 12.0357L14.1666 11.6632C13.9804 11.4771 13.7594 11.3294 13.5162 11.2286C13.273 11.1279 13.0123 11.076 12.749 11.076C12.4857 11.076 12.225 11.1279 11.9818 11.2286C11.7386 11.3294 11.5176 11.4771 11.3314 11.6632L10.9589 12.0357C10.7728 12.2219 10.5518 12.3695 10.3085 12.4703C10.0653 12.571 9.80461 12.6229 9.54134 12.6229C9.27806 12.6229 9.01737 12.571 8.77414 12.4703C8.5309 12.3695 8.3099 12.2219 8.12373 12.0357L7.75127 11.6632" stroke="#00827E" stroke-width="2" stroke-linecap="round" stroke-linejoin="round"/>
  <path d="M24.1621 19.2488L23.7896 19.6212C23.6035 19.8074 23.3825 19.9551 23.1392 20.0558C22.896 20.1566 22.6353 20.2084 22.372 20.2084C22.1087 20.2084 21.848 20.1566 21.6048 20.0558C21.3616 19.9551 21.1406 19.8074 20.9544 19.6212L20.582 19.2488C20.3958 19.0626 20.1748 18.9149 19.9315 18.8142C19.6883 18.7134 19.4276 18.6616 19.1643 18.6616C18.9011 18.6616 18.6404 18.7134 18.3971 18.8142C18.1539 18.9149 17.9329 19.0626 17.7467 19.2488L17.3743 19.6212C17.1881 19.8074 16.9671 19.9551 16.7239 20.0558C16.4806 20.1566 16.22 20.2084 15.9567 20.2084C15.6934 20.2084 15.4327 20.1566 15.1895 20.0558C14.9462 19.9551 14.7252 19.8074 14.5391 19.6212L14.1666 19.2488C13.9804 19.0626 13.7594 18.9149 13.5162 18.8142C13.273 18.7134 13.0123 18.6616 12.749 18.6616C12.4857 18.6616 12.225 18.7134 11.9818 18.8142C11.7386 18.9149 11.5176 19.0626 11.3314 19.2488L10.9589 19.6212C10.7728 19.8074 10.5518 19.9551 10.3085 20.0558C10.0653 20.1566 9.80461 20.2084 9.54134 20.2084C9.27806 20.2084 9.01737 20.1566 8.77414 20.0558C8.5309 19.9551 8.3099 19.8074 8.12373 19.6212L7.75127 19.2488" stroke="#00827E" stroke-width="2" stroke-linecap="round" stroke-linejoin="round"/>
</svg>
