<svg width="621" height="378" viewBox="0 0 621 378" fill="none" xmlns="http://www.w3.org/2000/svg">
<g opacity="0.06">
<path fill-rule="evenodd" clip-rule="evenodd" d="M304.963 222.012C304.963 262.762 271.335 295.797 229.853 295.797C209.932 295.797 190.828 288.023 176.742 274.186C162.656 260.349 154.742 241.581 154.742 222.012C154.742 181.262 188.37 148.228 229.853 148.228C271.335 148.228 304.963 181.262 304.963 222.012Z" fill="#5ABEA4"/>
<path fill-rule="evenodd" clip-rule="evenodd" d="M304.963 378.934C304.963 419.684 271.335 452.719 229.853 452.719C209.932 452.719 190.828 444.945 176.742 431.108C162.656 417.27 154.742 398.503 154.742 378.934C154.742 338.184 188.37 305.149 229.853 305.149C271.335 305.149 304.963 338.184 304.963 378.934Z" fill="#5ABEA4"/>
<path fill-rule="evenodd" clip-rule="evenodd" d="M150.463 378.894C150.463 419.644 116.835 452.679 75.3527 452.679C55.4321 452.679 36.3275 444.905 22.2415 431.068C8.15562 417.23 0.242188 398.463 0.242188 378.894C0.242188 338.144 33.8703 305.109 75.3527 305.109C116.835 305.109 150.463 338.144 150.463 378.894Z" fill="#5ABEA4"/>
<path fill-rule="evenodd" clip-rule="evenodd" d="M462.947 74.6372C462.947 115.387 429.319 148.422 387.837 148.422C367.916 148.422 348.812 140.648 334.726 126.811C320.64 112.974 312.727 94.2062 312.727 74.6372C312.727 33.8871 346.355 0.852539 387.837 0.852539C429.319 0.852539 462.947 33.8871 462.947 74.6372Z" fill="#5ABEA4"/>
<path fill-rule="evenodd" clip-rule="evenodd" d="M459.959 226.783C459.959 267.533 426.331 300.567 384.849 300.567C364.928 300.567 345.824 292.794 331.738 278.956C317.652 265.119 309.738 246.352 309.738 226.783C309.738 186.033 343.366 152.998 384.849 152.998C426.331 152.998 459.959 186.033 459.959 226.783Z" fill="#00827E"/>
<path fill-rule="evenodd" clip-rule="evenodd" d="M620.998 74.6381C620.998 115.388 587.37 148.423 545.888 148.423C525.967 148.423 506.862 140.649 492.776 126.812C478.691 112.974 470.777 94.207 470.777 74.6381C470.777 33.8879 504.405 0.853407 545.888 0.853407C587.37 0.853407 620.998 33.8879 620.998 74.6381Z" fill="#00827E"/>
<path fill-rule="evenodd" clip-rule="evenodd" d="M459.959 378.936C459.959 419.686 426.331 452.721 384.849 452.721C364.928 452.721 345.824 444.947 331.738 431.11C317.652 417.272 309.738 398.505 309.738 378.936C309.738 338.186 343.366 305.151 384.849 305.151C426.331 305.151 459.959 338.186 459.959 378.936Z" fill="#00827E"/>
<path fill-rule="evenodd" clip-rule="evenodd" d="M614.975 226.783C614.975 267.533 581.347 300.567 539.864 300.567C519.944 300.567 500.839 292.794 486.753 278.956C472.667 265.119 464.754 246.352 464.754 226.783C464.754 186.033 498.382 152.998 539.864 152.998C581.347 152.998 614.975 186.033 614.975 226.783Z" fill="#00827E"/>
<path fill-rule="evenodd" clip-rule="evenodd" d="M614.975 378.936C614.975 419.686 581.347 452.721 539.864 452.721C519.944 452.721 500.839 444.947 486.753 431.11C472.667 417.272 464.754 398.505 464.754 378.936C464.754 338.186 498.382 305.151 539.864 305.151C581.347 305.151 614.975 338.186 614.975 378.936Z" fill="#5ABEA4"/>
</g>
</svg>
