<svg width="747" height="1501" viewBox="0 0 747 1501" fill="none" xmlns="http://www.w3.org/2000/svg">
<path fill-rule="evenodd" clip-rule="evenodd" d="M243.894 122.053C243.894 189.349 189.34 243.904 122.044 243.904C89.7269 243.904 58.734 231.066 35.8825 208.215C13.0312 185.363 0.193359 154.37 0.193359 122.053C0.193359 54.7574 54.7476 0.203125 122.044 0.203125C189.34 0.203125 243.894 54.7574 243.894 122.053Z" fill="#5ABEA4"/>
<path fill-rule="evenodd" clip-rule="evenodd" d="M243.894 624.583C243.894 691.879 189.34 746.433 122.044 746.433C89.7269 746.433 58.734 733.595 35.8825 710.744C13.0312 687.893 0.193359 656.899 0.193359 624.583C0.193359 557.287 54.7476 502.732 122.044 502.732C189.34 502.732 243.894 557.287 243.894 624.583Z" fill="#5ABEA4"/>
<path fill-rule="evenodd" clip-rule="evenodd" d="M243.894 875.839C243.894 943.135 189.34 997.689 122.044 997.689C89.7269 997.689 58.734 984.851 35.8825 962C13.0312 939.148 0.193359 908.155 0.193359 875.839C0.193359 808.543 54.7476 753.988 122.044 753.988C189.34 753.988 243.894 808.543 243.894 875.839Z" fill="#005A56"/>
<path fill-rule="evenodd" clip-rule="evenodd" d="M243.894 1127.09C243.894 1194.39 189.34 1248.94 122.044 1248.94C89.7269 1248.94 58.734 1236.1 35.8825 1213.25C13.0312 1190.4 0.193359 1159.41 0.193359 1127.09C0.193359 1059.8 54.7476 1005.24 122.044 1005.24C189.34 1005.24 243.894 1059.8 243.894 1127.09Z" fill="#5ABEA4"/>
<path fill-rule="evenodd" clip-rule="evenodd" d="M243.894 1378.35C243.894 1445.65 189.34 1500.2 122.044 1500.2C89.7269 1500.2 58.734 1487.37 35.8825 1464.52C13.0312 1441.66 0.193359 1410.67 0.193359 1378.35C0.193359 1311.06 54.7476 1256.5 122.044 1256.5C189.34 1256.5 243.894 1311.06 243.894 1378.35Z" fill="#5ABEA4"/>
<path fill-rule="evenodd" clip-rule="evenodd" d="M500.195 122.053C500.195 189.349 445.64 243.904 378.345 243.904C346.028 243.904 315.035 231.066 292.183 208.215C269.332 185.363 256.494 154.37 256.494 122.053C256.494 54.7574 311.048 0.203125 378.345 0.203125C445.64 0.203125 500.195 54.7574 500.195 122.053Z" fill="#5ABEA4"/>
<path fill-rule="evenodd" clip-rule="evenodd" d="M495.347 373.313C495.347 440.609 440.793 495.163 373.497 495.163C341.18 495.163 310.187 482.326 287.336 459.474C264.484 436.623 251.646 405.63 251.646 373.313C251.646 306.017 306.201 251.463 373.497 251.463C440.793 251.463 495.347 306.017 495.347 373.313Z" fill="#005A56"/>
<path fill-rule="evenodd" clip-rule="evenodd" d="M495.347 624.583C495.347 691.879 440.793 746.433 373.497 746.433C341.18 746.433 310.187 733.595 287.336 710.744C264.484 687.893 251.646 656.899 251.646 624.583C251.646 557.287 306.201 502.732 373.497 502.732C440.793 502.732 495.347 557.287 495.347 624.583Z" fill="#005A56"/>
<path fill-rule="evenodd" clip-rule="evenodd" d="M495.347 875.839C495.347 943.135 440.793 997.689 373.497 997.689C341.18 997.689 310.187 984.851 287.336 962C264.484 939.148 251.646 908.155 251.646 875.839C251.646 808.543 306.201 753.988 373.497 753.988C440.793 753.988 495.347 808.543 495.347 875.839Z" fill="#005A56"/>
<path fill-rule="evenodd" clip-rule="evenodd" d="M495.429 1128.27C495.429 1195.57 440.875 1250.12 373.579 1250.12C341.262 1250.12 310.269 1237.28 287.418 1214.43C264.566 1191.58 251.729 1160.59 251.729 1128.27C251.729 1060.97 306.283 1006.42 373.579 1006.42C440.875 1006.42 495.429 1060.97 495.429 1128.27Z" fill="#00827E"/>
<path fill-rule="evenodd" clip-rule="evenodd" d="M746.826 373.313C746.826 440.609 692.271 495.163 624.975 495.163C592.659 495.163 561.666 482.326 538.814 459.474C515.963 436.623 503.125 405.63 503.125 373.313C503.125 306.017 557.679 251.463 624.975 251.463C692.271 251.463 746.826 306.017 746.826 373.313Z" fill="#005A56"/>
<path fill-rule="evenodd" clip-rule="evenodd" d="M746.826 624.583C746.826 691.879 692.271 746.433 624.975 746.433C592.659 746.433 561.666 733.595 538.814 710.744C515.963 687.893 503.125 656.899 503.125 624.583C503.125 557.287 557.679 502.732 624.975 502.732C692.271 502.732 746.826 557.287 746.826 624.583Z" fill="#5ABEA4"/>
<path fill-rule="evenodd" clip-rule="evenodd" d="M746.826 1127.09C746.826 1194.39 692.271 1248.94 624.975 1248.94C592.659 1248.94 561.666 1236.1 538.814 1213.25C515.963 1190.4 503.125 1159.41 503.125 1127.09C503.125 1059.8 557.679 1005.24 624.975 1005.24C692.271 1005.24 746.826 1059.8 746.826 1127.09Z" fill="#00827E"/>
</svg>
