<svg width="12" height="21" viewBox="0 0 12 21" fill="none" xmlns="http://www.w3.org/2000/svg">
<path d="M11.1513 20.573C9.7807 20.573 8.42654 20.0539 7.08882 19.0158C5.7511 17.9776 4.53399 16.506 3.4375 14.6011C2.34101 12.6962 1.49397 10.5818 0.896382 8.25778C0.298794 5.93379 0 3.58123 0 1.20009C0 0.857209 0.0657895 0.571473 0.197368 0.342884C0.328947 0.114295 0.493421 0 0.69079 0H3.35526C3.50877 0 3.64583 0.0904832 3.76645 0.27145C3.88706 0.452416 3.95833 0.666718 3.98026 0.914357L4.4079 4.91467C4.42982 5.21945 4.42434 5.47662 4.39145 5.68616C4.35855 5.8957 4.29825 6.07666 4.21053 6.22905L2.61513 9.02927C2.83443 9.73409 3.09485 10.4151 3.39638 11.0723C3.69792 11.7295 4.02961 12.3629 4.39145 12.9724C4.73136 13.563 5.08772 14.1106 5.46053 14.6154C5.83333 15.1202 6.22807 15.5822 6.64474 16.0012L8.19079 13.3153C8.28947 13.1439 8.41831 13.0153 8.5773 12.9296C8.73629 12.8439 8.89254 12.82 9.04605 12.8581L11.3158 13.6582C11.4693 13.7344 11.5954 13.8725 11.6941 14.0725C11.7928 14.2725 11.8421 14.4964 11.8421 14.744V19.3729C11.8421 19.7158 11.7763 20.0016 11.6447 20.2301C11.5132 20.4587 11.3487 20.573 11.1513 20.573ZM1.99013 6.85768L3.07566 4.97181L2.79605 2.28589H1.33224C1.38706 3.0669 1.46382 3.83839 1.5625 4.60036C1.66118 5.36232 1.80373 6.11476 1.99013 6.85768ZM7.87829 17.087C8.30592 17.4109 8.74178 17.668 9.18586 17.8585C9.62993 18.049 10.0768 18.1728 10.5263 18.23V15.7155L8.98026 15.1726L7.87829 17.087Z" fill="black"/>
</svg>
