<svg width="52" height="22" viewBox="0 0 52 22" fill="none" xmlns="http://www.w3.org/2000/svg">
<path d="M44.3534 21.5401C49.3212 21.5401 51.254 18.5964 51.254 14.7433V0.470917H47.5657V15.6851C47.5657 18.156 46.6138 19.6279 44.3534 19.6279C42.122 19.6279 41.1411 18.0683 41.1411 15.3896V12.566L37.4529 13.4774V14.7433C37.4529 18.5983 39.3857 21.5401 44.3534 21.5401ZM24.7232 19.3915C21.8674 19.3915 20.1139 17.096 20.1139 14.6537C20.1139 13.1228 20.798 11.71 21.9272 10.9169L28.6485 18.1846C27.3998 18.9206 26.0008 19.3915 24.7232 19.3915ZM28.3209 8.85781C30.7296 8.85781 32.2173 10.2401 32.2173 12.6251C32.2173 13.6852 31.9205 14.7738 31.2653 15.7748L25.4362 9.41643C26.4768 9.00461 27.4885 8.85781 28.3209 8.85781ZM24.7232 1.55955C26.4787 1.55955 27.5193 2.56049 27.5193 4.38505C27.5193 6.06281 26.6868 7.65097 24.6346 8.5642L23.3551 7.15145C22.2239 5.91601 21.8983 5.14958 21.8983 4.23825C21.8963 2.52999 22.9966 1.55955 24.7232 1.55955ZM32.1884 16.7738C33.7955 14.8901 34.7166 12.8311 34.7166 11.0351C34.7166 8.79871 33.2 7.29826 30.8202 7.29826C29.5715 7.29826 28.1725 7.65097 27.2514 8.00368L27.1917 7.88547C29.452 6.67863 30.404 5.56139 30.404 4.00184C30.404 1.76546 28.3806 0 24.8119 0C20.7074 0 18.6841 2.26688 18.6841 5.09048C18.6841 6.62143 19.3392 8.15048 21.0639 10.0055L21.0928 10.0647C18.1792 11.4469 16.8399 13.6833 16.8399 15.9788C16.8399 19.0102 19.1889 21.5401 22.8174 21.5401C24.8986 21.5401 27.3381 20.686 29.5388 19.157L31.3232 21.0692H35.9922V20.9224L32.1884 16.7738ZM6.90054 21.5401C11.8683 21.5401 13.8011 18.5964 13.8011 14.7433V0.470917H10.1128V15.6851C10.1128 18.156 9.16089 19.6279 6.90054 19.6279C4.66909 19.6279 3.68825 18.0683 3.68825 15.3896V12.566L0 13.4774V14.7433C0 18.5983 1.93277 21.5401 6.90054 21.5401Z" fill="black"/>
</svg>
