<svg width="50" height="17" viewBox="0 0 50 17" fill="none" xmlns="http://www.w3.org/2000/svg">
                           <path d="M24.8086 9.99026H19.7973V16.1764H15.844V0.767273H19.7973V6.50352H24.8086V0.767273H28.762V16.2327H24.8086V9.99026Z" fill="white"></path>
                           <path d="M32.2146 0.767273H36.168V16.2327H32.2146V0.767273Z" fill="white"></path>
                           <path d="M39.6204 0.767273H43.5737V12.7459H49.6986V16.2327H39.6204V0.767273Z" fill="white"></path>
                           <path d="M8.3827 0.767273H0.69873V16.2327H4.65208V4.14154H7.88157C8.82815 4.14154 9.66336 4.92887 9.66336 5.88491C9.66336 6.95342 8.88383 7.62828 7.82589 7.62828H6.26682V11.0025H8.32702C11.7792 11.0025 13.6724 8.69679 13.6724 5.94114C13.6724 3.18549 11.7792 0.767273 8.3827 0.767273Z" fill="white"></path>
                        </svg>

